<?xml version="1.0" encoding="UTF-8"?>
<svg id="Layer_2" data-name="Layer 2" xmlns="http://www.w3.org/2000/svg" viewBox="0 0 143.41 127.79">
  <defs>
    <style>
      .cls-1 {
        fill: #20464c;
      }

      .cls-2 {
        fill: #06cbf9;
      }

      .cls-3 {
        fill: #4c5b72;
      }

      .cls-4 {
        fill: none;
      }

      .cls-5 {
        fill: #808793;
      }

      .cls-6 {
        font-family: BebasNeue, BebasNeue;
        font-size: 29.61px;
        letter-spacing: .1em;
      }
    </style>
  </defs>
  <g id="Logo_4" data-name="Logo 4">
    <g id="_Your_Text_Here_" data-name="[Your Text Here]">
      <g>
        <path class="cls-4" d="m85.68,2.67h-.1c0,.1,0,.19.01.29.01.2.03.41.05.61h.04v-.9Z"/>
        <path class="cls-4" d="m77.38,5.21v.09s0,0,0,0c.03.02.11.01.14-.02.04-.04.05-.07.06-.11h-.04s-.16.03-.16.03Z"/>
        <path class="cls-4" d="m90.08,4.48c.06,0,.09-.05.1-.16-.09-.16-.11-.37-.13-.6,0-.09-.14-.09-.23-.09-.06,0-.11.06-.09.11.09.22.05.49.21.69.03.03.09.05.14.05Z"/>
        <path class="cls-4" d="m89.93,2.35c.03-.09.05-.16.08-.23.04-.09.08-.17,0-.25-.04-.04-.09-.05-.14-.02-.09.05-.14.12-.13.22,0,.12.04.22.2.28Z"/>
        <path class="cls-5" d="m82.77,4.94v-.21s-.04-.02-.07-.02c-.08.01-.1.08-.09.16.01.09.07.13.14.1,0,0,.02-.01.03-.02Z"/>
        <path class="cls-5" d="m74.5,4.34s0,0,0,0c.07,0,.14-.02.22-.02.18.03.35.04.53,0,.17.03.34.05.52-.03-.04-.24-.07-.48-.11-.71,0-.12.01-.23.02-.35l-.21.11v.4l-.4.29-.27-.24-.41-.02-.06-.43-.12.39-.24-.39s0,0,0,0l-.02.51-.34-.28s0,0,0,0l.24.46-.45.04.42.2v.13s-.25.29-.25.29l.42-.14-.04.3h-.32l-.04.07-1.15.03-.27.19h-.06s0-.35,0-.35h-.32l-.11.08-.02.25-.09.02-.04-.28h-.26l-.15.09h-.13s-.12.11-.12.11l-.31-.14h-.23l.79.58h.32l.12-.1.08-.03v.1l.14.1h.35l.09-.15h.4v-.19h.4l1.22.26c.06-.31.17-.62.17-.94.03-.07.07-.15.1-.22Z"/>
        <path class="cls-5" d="m77.41,4.9c.03.14-.17.26-.03.4v-.09l.16-.03h.04c0-.1-.13-.18-.13-.28.19-.14-.03-.26,0-.4.02-.09.13-.25-.07-.23-.12,0-.16.19-.07.27.12.11-.11.31.1.36Z"/>
        <path class="cls-5" d="m82.09,2.82c.05-.23.11-.45.04-.74-.16.24-.11.5-.29.65-.08.07-.12.16-.02.22.12.07.23.05.27-.12Z"/>
        <path class="cls-5" d="m82.61,3.17c-.05.11-.18.23-.02.24.22,0,.07-.13.02-.24Z"/>
        <path class="cls-5" d="m82.74,2.95s.06-.09.01-.14c-.02-.02-.06-.03-.1-.05-.17.07-.1.18-.03.29.03-.05.09-.06.13-.1Z"/>
        <path class="cls-5" d="m82.6,4.06c.01.06.04.1.1.1.06,0,.1-.04.1-.1,0-.06-.04-.1-.1-.09-.06,0-.09.03-.11.09Z"/>
        <path class="cls-5" d="m81.99,3.78c-.06,0-.1.02-.11.08-.01.09.02.15.1.16.06.01.1-.02.11-.08.01-.08-.02-.14-.1-.16Z"/>
        <path class="cls-3" d="m85.01,4.15s-.02-.08-.04-.1c-.05-.04-.09,0-.12.05-.02.04-.01.08.03.1.05.02.1,0,.13-.05Z"/>
        <path class="cls-3" d="m86.3,4.15c0-.81-.09-1.65-.16-2.48-.02-.26-.23-.19-.38-.19-.14,0-.26.04-.23.28.04.3.04.6.05.91h.1v.9h-.04c.03.3.05.6.06.9,0,.15.04.2.16.23.33.09.43,0,.43-.36,0-.06,0-.11.01-.2Z"/>
        <path class="cls-3" d="m87.79,4.78c-.09,0-.16.05-.14.19.08.07,0,.3.23.28.14-.01.16-.11.17-.23,0-.2-.1-.26-.26-.25Z"/>
        <path class="cls-3" d="m82.82,4.84s-.02-.09-.05-.11v.21s.05-.07.05-.1Z"/>
        <g>
          <path class="cls-4" d="m72.88,18.97c.07.17.19.32.33.48.03-.18.02-.34,0-.48h-.34Z"/>
          <path class="cls-4" d="m74.9,18.96s0,.04,0,.06c0-.02,0-.04,0-.06h-.01Z"/>
          <path class="cls-4" d="m85.28,84.64s-.03.15-.04.22c0,.06,0,.17.11.15.11-.02.11-.13.12-.21,0-.06,0-.12-.04-.16h-.15Z"/>
          <path class="cls-4" d="m74.32,12.81c.11-.21.14-.4.13-.59h-.22c-.06.2-.04.38.09.59Z"/>
          <path class="cls-4" d="m75.54,15.54s.01-.03.01-.05c0-.06-.04-.09-.09-.1-.06,0-.09.03-.1.09,0,.02,0,.05,0,.07h.18Z"/>
          <path class="cls-4" d="m85.7,84.88s.01.03.04.1c.02-.04.04-.06.04-.07,0-.09.06-.18.04-.27h-.14c-.03.08.01.16.03.24Z"/>
          <path class="cls-4" d="m77.85,12.51c-.13,0-.14.15-.14.25,0,.03,0,.06,0,.09h.25s0-.05,0-.08c-.02-.1.02-.26-.12-.26Z"/>
          <path class="cls-4" d="m63.09,25.68c-.09,0-.09.09-.09.16,0,.08.05.14.13.14.07,0,.12-.05.12-.14-.02-.09-.05-.18-.16-.17Z"/>
          <path class="cls-4" d="m76.08,8.58c-.08,0-.15.05-.17.14-.01.07.04.14.12.14.09,0,.17-.04.19-.14,0-.07-.04-.14-.14-.14Z"/>
          <path class="cls-4" d="m76.07,15.22c-.08-.02-.11.06-.12.14,0,.08,0,.14.06.18h.13s.03-.05.03-.09c-.03-.08.01-.21-.1-.23Z"/>
          <path class="cls-4" d="m68.2,31.38c-.07-.03-.08.04-.09.09-.01.06.02.1.03.11.11.03.12-.03.14-.08.02-.07-.03-.1-.08-.12Z"/>
          <path class="cls-4" d="m88.2,85.11c.08-.15.1-.27.02-.44-.1.17-.1.29-.02.44Z"/>
          <path class="cls-4" d="m74.75,66.77c-.11,0-.21.03-.29.07h.29v-.07Z"/>
          <path class="cls-4" d="m71.94,66.67c0,.06,0,.11,0,.17h.23c0-.06-.01-.13-.01-.19,0-.05,0-.11,0-.16h-.21c0,.06,0,.12,0,.18Z"/>
          <path class="cls-4" d="m72.39,15.17c-.02.13-.02.25-.01.36h.38c-.03-.16-.17-.26-.36-.36Z"/>
          <path class="cls-4" d="m89.61,60.44c-.21-.06-.38-.07-.54-.07v.23c.16.02.33,0,.54-.16Z"/>
          <path class="cls-4" d="m72.29,11.96c.02.3-.01.6-.04.89h.19c-.1-.29-.07-.6-.15-.89Z"/>
          <path class="cls-4" d="m67.04,8.87c.1-.01.14-.1.13-.2,0-.09-.09-.09-.16-.09-.07.02-.15.03-.14.12,0,.1.06.18.16.16Z"/>
          <path class="cls-4" d="m86.03,84.64s-.02.05-.02.08c0,.1-.01.26.13.25.11-.01.12-.16.14-.27,0-.02,0-.04,0-.06h-.25Z"/>
          <path class="cls-4" d="m68.32,9.41c-.6-.05-1.2-.04-1.79,0-.08,0-.14.06-.14.14,0,.08.06.14.14.14.32,0,.63,0,.95,0,0,0,0,.02,0,.03.26,0,.53,0,.79,0,.08,0,.19,0,.21-.12.02-.12-.07-.18-.15-.19Z"/>
          <path class="cls-4" d="m69.44,8.61c-.31-.09-.63-.03-.84-.04-.38,0-.64,0-.91,0-.11,0-.21.06-.2.2.01.13.1.24.21.2.29-.12.56.05.83.05.3,0,.6,0,.9-.02.11,0,.19-.1.19-.23,0-.12-.1-.15-.18-.17Z"/>
          <path class="cls-4" d="m89.22,17.13s-.11-.05-.15-.02v1.08c.04.06.1.1.18.13.07.03.06.05-.13.16-.03.03-.04.05-.05.08v.12s.03.08.04.12c0,.07,0,.15.01.22,0,.13-.01.26.1.34.09.07.2.05.2-.06,0-.24.07-.49-.04-.73-.03-.08-.1-.14-.02-.25.21-.27.05-.58.06-.87,0-.14-.09-.25-.2-.31Z"/>
          <path class="cls-4" d="m89.18,54.34c.08,0,.12-.07.13-.15,0-.09-.04-.15-.11-.16-.05-.01-.1,0-.13.03v.24s.07.04.11.04Z"/>
          <path class="cls-4" d="m72.97,24.65c-.09.03-.15.08-.15.18,0,.04.02.07.04.09h.16s.05-.07.06-.12c0-.07-.03-.14-.11-.16Z"/>
          <path class="cls-4" d="m89.21,45.88c-.17.33,0,.52,0,.86.24-.35.14-.55,0-.86Z"/>
          <path class="cls-4" d="m89.07,32.98v.9s.04-.06.04-.09c.05-.27-.04-.54.1-.8-.06-.02-.1-.02-.14-.01Z"/>
          <path class="cls-4" d="m89.18,52.91c-.05.06-.09.12-.12.18v.24c.03.06.09.12.18.19-.05-.25.04-.43-.06-.62Z"/>
          <path class="cls-4" d="m89.44,83.45c-.21.3-.09.51.03.72.02-.22.1-.44-.03-.72Z"/>
          <path class="cls-4" d="m77.41,24.21c-.05-.2-.04-.36-.01-.51h-.22c.03.16-.03.36.23.51Z"/>
          <path class="cls-4" d="m74.76,23.47l-.19-.16c-.7.03-1.41-.05-2.12-.07-.46-.01-.92,0-1.38,0-1.28,0-2.56,0-3.83,0-.09,0-.23-.03-.23.19.08.04.19.12.28.11.33-.06.66.08.99.02.32-.06.66-.08.98-.02.34.06.68.09,1,.02.32-.07.5,0,.59.38.17-.17.17-.48.44-.41.42.1.85.09,1.27.01.2-.04.24.09.3.24-.01.14-.16.32.01.39.16.06.2-.16.24-.29.01-.05,0-.11,0-.17.07-.06.15-.18.2-.17.35.11.74-.05,1.08.14.06.04.11.08.19.05.4-.14.81-.17,1.22-.17v-.09h-1.03Z"/>
          <path class="cls-4" d="m74.96,26.76c-.03.15-.05.29.03.41h.05c.04-.15.21-.32-.08-.41Z"/>
          <path class="cls-4" d="m72.93,25.98c-.05,0-.11.02-.11.08,0,.08.05.13.13.12.05,0,.08-.06.09-.11,0-.06-.05-.09-.1-.09Z"/>
          <path class="cls-4" d="m74.37,24.05s-.01-.02-.02-.04c-.01,0-.03.01-.03.02,0,.01,0,.04,0,.04.03.03.05.01.05-.03Z"/>
          <path class="cls-4" d="m68.56,27.57c.11,0,.11-.12.12-.21,0-.08-.03-.15-.11-.15-.11,0-.15.06-.15.17,0,.1.03.19.13.19Z"/>
          <path class="cls-4" d="m89.21,54.59s-.06-.05-.09-.05c-.02,0-.04,0-.05.01v.89c.02.16.04.33.1.5.3-.47.01-.92.05-1.35Z"/>
          <path class="cls-4" d="m89.07,34.64s.04-.06.05-.09c.02-.07.02-.13-.05-.16v.25Z"/>
          <path class="cls-4" d="m89.25,56.38c-.08,0-.14.04-.13.13,0,.06.05.1.11.09.05,0,.13-.04.13-.07.02-.08-.03-.14-.11-.16Z"/>
          <path class="cls-4" d="m68.78,31.02c-.05-.04-.08-.09-.06-.14.16-.36.09-.75.11-1.13,0-.18.03-.39-.16-.4-.22,0-.17.22-.16.38,0,.02.02.03.03.05,0,.04,0,.07.03.1-.19.4-.16.98.08,1.23.05.06.13.08.18.02.07-.07-.02-.09-.05-.12Z"/>
          <path class="cls-4" d="m89.3,27.64c.01.06.05.1.11.1.07,0,.13-.04.11-.14-.01-.09-.1-.14-.14-.23-.04.1-.1.18-.08.27Z"/>
          <path class="cls-4" d="m68.7,26.65c.03-.07.03-.15-.04-.2-.08-.06-.17-.05-.25-.01-.09.05-.11.14-.08.24.04.12.1.23.22.31.05-.12.11-.22.15-.34Z"/>
          <path class="cls-4" d="m89.1,16.74c.19.03.26-.09.25-.27-.02-.42-.05-.83-.07-1.25.08-.14.06-.29-.02-.42-.03-.06-.11-.1-.19-.13v2.06s.02,0,.04,0Z"/>
          <path class="cls-4" d="m69.5,24.22s.04-.06.04-.08c0-.06-.05-.09-.09-.09-.07.02-.08.07-.06.12.02.05.07.08.11.05Z"/>
          <path class="cls-4" d="m89.11,36.47s0-.1-.05-.13v.18s.04-.03.05-.06Z"/>
          <path class="cls-4" d="m89.13,35.68c.02-.05,0-.12-.06-.14v.21s.05-.03.06-.06Z"/>
          <path class="cls-4" d="m69.2,24.84c0,.07.02.15.12.13.09-.01.17-.04.18-.15,0-.08-.05-.13-.13-.13-.09,0-.17.03-.17.15Z"/>
          <path class="cls-2" d="m91.96,24.77c.03-.17,0-.34-.04-.5-.02-.08-.07-.14-.15-.09-.06.04-.09.13-.02.19.1.11.21.22.12.39-.02.05-.1.07-.11.11-.05.13.09.32.18.26.13-.1.08-.23.03-.36Z"/>
          <path class="cls-2" d="m92.14,28.2c-.09,0-.13.08-.13.14,0,.07.04.16.13.15.09-.01.09-.1.09-.09,0-.14-.02-.2-.08-.2Z"/>
          <path class="cls-2" d="m92.01,35.74s-.07.06-.09.09c0,.08.03.12.08.13.07.02.09-.02.1-.08,0-.06.03-.16-.08-.14Z"/>
          <path class="cls-2" d="m91.66,43.37c-.07.03-.1.1-.09.21.01.11.07.16.17.16.09,0,.12-.05.11-.14-.01-.11-.02-.23-.19-.23Z"/>
          <path class="cls-2" d="m92.38,19.89c-.08,0-.09.1-.08.18,0,.07.02.14.06.35.08-.19.12-.25.14-.32.01-.09.01-.21-.11-.2Z"/>
          <path class="cls-2" d="m91.69,50.86c-.12,0-.16.07-.16.17,0,.09.02.19.14.18.1,0,.17-.07.17-.17,0-.09-.05-.17-.15-.19Z"/>
          <path class="cls-4" d="m92.73,59.01c-.07,0-.14.05-.17.15-.04.13,0,.23.12.27.07.03.13-.04.16-.11.04-.11.04-.22-.1-.31Z"/>
          <path class="cls-2" d="m92.17,27.5c-.05.02-.08.06-.07.11,0,.05.02.11.09.08.05-.02.09-.05.08-.11,0-.06-.04-.09-.1-.08Z"/>
          <path class="cls-2" d="m91.72,52.25c-.09.01-.12.05-.11.11,0,.06.05.1.1.09.06,0,.08-.06.08-.12,0-.06-.05-.09-.07-.09Z"/>
          <path class="cls-2" d="m91,27.76c-.06,0-.09.05-.09.11,0,.06.03.1.09.1.05,0,.1-.04.1-.1,0-.06-.04-.09-.09-.1Z"/>
          <path class="cls-4" d="m89.81,60.5c.39.16.79.07,1.18.04-.39-.21-.78-.16-1.18-.04Z"/>
          <path class="cls-4" d="m91.4,61.2c-.06,0-.08.05-.09.11.01.06.05.09.1.09.06,0,.09-.04.08-.11,0-.06-.05-.09-.1-.09Z"/>
          <path class="cls-2" d="m91.49,30.67c-.01-.08-.02-.18-.13-.19-.07.02-.12.08-.11.16,0,.09.09.09.15.11.06.02.1-.01.09-.08Z"/>
          <path class="cls-2" d="m99.94,16.71c.04-.6.13-1.21-.09-1.8-.11.61,0,1.2.09,1.8Z"/>
          <path class="cls-4" d="m90.84,61.93c-.08-.03-.15.01-.17.08-.03.11-.03.23.07.3.08.06.13-.03.16-.09.03-.1.09-.22-.05-.29Z"/>
          <path class="cls-2" d="m100.91,13.69c-.09.62-.05,1.24-.05,1.86,0,.07.1.16.22.08.02-.67.02-1.34-.03-2.09-.1.1-.14.12-.15.15Z"/>
          <path class="cls-2" d="m101.38,11.32c0-.28,0-.56,0-.84-.08.43-.16.86-.07,1.34.09-.2.07-.35.07-.5Z"/>
          <path class="cls-2" d="m101.46,14.43c-.05-.08-.1-.17-.15-.25,0,.07.05.15.15.25Z"/>
          <path class="cls-2" d="m94.31,27.82s-.04-.09-.1-.11c-.06-.02-.12.03-.13.07-.02.22-.05.44-.04.67,0,.13.1.23.27.26-.02-.3-.13-.59,0-.88Z"/>
          <path class="cls-2" d="m94.89,23.59s.05.05.07.05c.05,0,.08-.05.07-.1,0-.02-.05-.03-.08-.05-.06.01-.08.05-.06.1Z"/>
          <path class="cls-2" d="m95.29,28.23c-.18-.07-.15.31-.24.46-.02.03.03.09.05.15.13-.02.14-.09.12-.13-.07-.19.39-.36.06-.48Z"/>
          <path class="cls-2" d="m99.05,12.11c.03.55.22,1.07.22,1.61.11-.4.12-1.24.06-1.46-.03-.09-.08-.16-.27-.15Z"/>
          <path class="cls-2" d="m98.54,10.83c-.09,0-.13.1-.11.17.06.3.08.59,0,.9-.03.11.04.24.15.28.13.04.17-.11.2-.21.03-.11.03-.22.05-.33.01-.24-.07-.45-.13-.67-.02-.07-.07-.14-.15-.13Z"/>
          <path class="cls-2" d="m99.32,9.53c-.21.39-.19.65,0,1.29v-1.29Z"/>
          <path class="cls-4" d="m89.86,75.8c0-.09-.06-.12-.14-.12-.09.03-.14.1-.11.2.02.08.08.11.16.09.08-.02.1-.09.09-.17Z"/>
          <path class="cls-2" d="m90.81,35.14c.07,0,.13-.05.14-.12,0-.07-.06-.09-.1-.09-.07,0-.15,0-.16.09-.02.09.04.13.12.13Z"/>
          <path class="cls-2" d="m90.9,34.52s-.02-.08-.04-.09c-.05-.03-.09,0-.11.05-.02.04,0,.07.03.09.05.02.09,0,.12-.04Z"/>
          <path class="cls-4" d="m90.52,66.07c-.18-.04-.12.17-.14.28,0,.07.01.14.03.34.09-.17.14-.23.16-.29.04-.12.08-.31-.05-.33Z"/>
          <path class="cls-4" d="m90.66,54.99c.06-.24.1-.38-.02-.54-.09.17-.06.31.02.54Z"/>
          <path class="cls-2" d="m91.67,29.45c.05-.01.17.01.13-.11-.03-.1-.11-.14-.28-.14,0,0-.03.05-.03.1,0,.12.08.17.18.15Z"/>
          <path class="cls-2" d="m90.87,36.66c.14-.21.03-.38-.08-.54-.03-.05-.1-.03-.13.02-.08.18.05.31.11.45,0,.03.05.04.1.07Z"/>
          <path class="cls-4" d="m90.62,53.59c.09,0,.11-.07.11-.15,0-.06-.02-.11-.09-.12-.07.02-.12.07-.12.15,0,.06.04.11.1.11Z"/>
          <path class="cls-4" d="m93.84,78.26q-.05.42.13.76.07-.57-.13-.76Z"/>
          <path class="cls-4" d="m91.95,82.97c-.23.45-.21,1.47.04,2.23.08-.78.2-1.48-.04-2.23Z"/>
          <path class="cls-4" d="m91.57,84.94c.19-.22-.05-.4-.08-.61.01.2-.16.42.03.6,0,0,.04.01.05,0Z"/>
          <path class="cls-2" d="m92.81,50.95s-.04-.05-.06-.07c-.03.02-.08.02-.08.05,0,.02.01.08.03.09.06.02.1,0,.11-.07Z"/>
          <path class="cls-4" d="m91.53,83.07q-.09.34,0,.62c.09-.2.03-.41,0-.62Z"/>
          <path class="cls-2" d="m90.95,26.21s.12-.03.13-.06c.02-.08-.03-.13-.13-.14-.03.02-.09.03-.1.06-.02.08.03.14.1.13Z"/>
          <path class="cls-4" d="m90.28,71.5c-.03.09.05.15.12.16.11.02.16-.07.14-.17-.03-.24-.12-.47.03-.69-.02-.07-.03-.13-.04-.18-.03-.12,0-.29-.19-.27-.21.03-.19.22-.15.35.09.27.18.52.09.81Z"/>
          <path class="cls-4" d="m90.28,79.06c.24-.75.24-.88.02-1.19-.04.39-.08.74-.02,1.19Z"/>
          <path class="cls-4" d="m90.37,69.79c.01-.07-.03-.1-.09-.11-.03,0-.07.02-.08.04-.02.05,0,.11.05.13.05.02.1-.01.12-.07Z"/>
          <path class="cls-4" d="m90.51,75.77c-.08.02-.1.09-.09.16,0,.06.03.1.09.11.1.02.11-.08.11-.14,0-.06,0-.16-.1-.14Z"/>
          <path class="cls-4" d="m90.37,80.09c.04-.23.07-.46-.06-.67-.02.23-.12.46.06.67Z"/>
          <path class="cls-4" d="m89.4,84.71c-.09.13-.07.26.07.43.06-.18.1-.31.02-.45,0-.01-.08,0-.09.02Z"/>
          <path class="cls-4" d="m89.8,82.98c-.06-.02-.09.04-.1.09-.02.07.03.1.08.11.07.02.08-.03.1-.09,0-.06-.02-.1-.07-.12Z"/>
          <path class="cls-5" d="m72.96,25.66c-.03-.11-.12-.12-.21-.13-.06.03-.14.04-.12.14.03.11.11.13.2.12.06,0,.15-.02.12-.13Z"/>
          <path class="cls-5" d="m81.39,25.72h-.19s.02.07.06.08c.06.02.1-.03.13-.08Z"/>
          <path class="cls-5" d="m79.19,25.77c.06,0,.1-.02.12-.05h-.06v-.23c-.08.02-.1.1-.13.18-.03.07.03.1.07.11Z"/>
          <path class="cls-5" d="m81.64,23.8c-.01-.1,0-.17.04-.24.06-.1.05-.18-.07-.2-.1-.02-.19.02-.2.12-.01.09.03.19.02.28,0,.05-.02.1-.04.15h.26s0-.08,0-.11Z"/>
          <path class="cls-5" d="m82.91,23.92h.11c.05-.07.09-.15.03-.26-.03-.05-.06-.09-.18-.05,0,0-.03.04-.06.09-.05.11.03.16.1.22Z"/>
          <path class="cls-5" d="m80.23,23.26c-.15-.03-.22.07-.25.2,0,.12.06.19.16.18.12,0,.17-.12.2-.22.02-.08-.02-.15-.1-.16Z"/>
          <path class="cls-5" d="m72.96,24.95s.05-.01.06-.03h-.16s.06.03.1.03Z"/>
          <path class="cls-5" d="m78,23.33c-.05.03-.17.02-.14.16.02.09.1.09.17.08.09,0,.18-.03.16-.16-.02-.08-.09-.1-.18-.08Z"/>
          <path class="cls-5" d="m76.62,23.26c-.61.14-1.21-.02-1.82.03-.08,0-.16.01-.24.01l.19.16h1.03v.09c.45,0,.9.04,1.35.03.02.03.03.06.04.1h.22c.01-.07.03-.13.05-.2.05-.15-.1-.15-.2-.16-.22.06-.42-.13-.62-.09Z"/>
          <path class="cls-5" d="m83.39,26.38s.05-.07.04-.09c-.02-.06-.07-.07-.12-.05-.04.02-.05.05-.04.09.03.06.07.08.12.05Z"/>
          <path class="cls-5" d="m82.82,26.07h-.09c-.06.02-.1.07-.07.13.05.11.1.25.26.22.08-.02.11-.09.11-.16,0-.15-.11-.17-.2-.19Z"/>
          <path class="cls-5" d="m79.16,27.17h.15s.08-.09.06-.17c0-.04-.07-.06-.11-.09-.07.06-.18.1-.14.21,0,.02.02.03.04.05Z"/>
          <path class="cls-5" d="m78.73,23.37c-.05,0-.12,0-.14.09-.02.1.06.12.13.12.06,0,.14-.02.13-.12,0-.06-.04-.09-.12-.09Z"/>
          <path class="cls-5" d="m82.7,27.17h.27s.02-.04.02-.08c0-.12-.06-.21-.19-.2-.09.01-.19.06-.18.16,0,.06.04.09.08.11Z"/>
          <path class="cls-5" d="m79.29,23.51c.02.09.08.11.15.1.09-.02.16-.07.15-.18,0-.03-.08-.06-.13-.07-.1,0-.17.04-.17.15Z"/>
          <path class="cls-5" d="m77.24,26.8c0-.11.03-.29-.14-.31-.15-.02-.2.12-.26.23-.05.09-.01.18.03.27.03.06.04.12.04.18h.18c.05-.13.16-.23.15-.37Z"/>
          <path class="cls-5" d="m72.36,13.05c.09,0,.13-.06.1-.14,0-.02-.01-.04-.02-.06h-.19s0,.04,0,.06c0,.09.03.14.12.14Z"/>
          <path class="cls-5" d="m68.08,52.76v-.95h1.15v-.54h-3.6v.28h-2.03v.28h-.86v.28h-.34v.3h-.47l.05.25h-.23l-.03.15s-1.98.01-2.34,0c-.41-.02-.45.4-.45.4h-1.04v.13h1.03c.02.49.4.51.4.51h2.6v.38h.42v.3h.42l.03.3h.73l.03.23h2.05v.15h3.35v-2.44h-.88Z"/>
          <path class="cls-5" d="m72.47,14.98h.04s.02,0,.04,0c.12-.02.1-.09.11-.19.03-.31-.13-.6-.08-.91,0-.08.02-.15,0-.23-.02-.15-.07-.32-.26-.29-.18.03-.15.2-.13.32.03.24.07.49.07.73,0,.15.03.3.06.45.02.08.07.11.14.12Z"/>
          <polygon class="cls-5" points="83.79 60.16 83.79 59.71 81.45 59.71 81.45 57.76 80.47 57.76 80.47 57.01 79.39 57.01 79.39 55.56 76.94 55.56 76.94 55.78 71.11 55.78 71.11 57.33 77.37 57.33 77.37 57.39 76.63 58.12 72.2 58.12 71.55 58.12 71.55 58.58 71.11 58.58 71.11 59.79 68.17 59.79 68.17 60.86 74.24 60.86 74.24 61.86 69.11 61.86 69.11 63.16 74.58 63.16 74.58 60.16 83.79 60.16"/>
          <polygon class="cls-5" points="72.96 35.91 72.96 36.57 74.1 36.57 74.1 36.94 75.93 36.94 75.93 35.91 72.96 35.91"/>
          <path class="cls-5" d="m71.94,66.49h.21c0-.35,0-.71,0-1.06.18-.21.21-.47.26-.73h-.24c-.04.16-.13.31-.14.47-.13.43-.1.88-.1,1.32Z"/>
          <path class="cls-5" d="m75.42,15.59c.05,0,.1,0,.13-.06h-.18s.03.05.06.06Z"/>
          <path class="cls-5" d="m75.9,22.5s.05-.05.08,0c.26.37.6.09.89.1.86.03,1.72.09,2.58.05v-.22h-1.08v-.6h.74v-1.28c-.43.03-.87.06-1.3.09-.16-.31-.34-.48-.63-.15-.1.11-.14-.05-.21-.08-.35-.15-.37-.14-.44.33-.04,0-.07,0-.1,0,.03-.36-.23-.37-.44-.38-.13,0-.26.08-.4.05-.04,0-.08,0-.12-.01-.03,0-.07-.02-.1-.03-.02-.08-.04-.16-.13-.14-.1.01-.15.14-.28.14-.67,0-1.34.01-2.01.03-.12,0-.3-.03-.36.04-.14.15-.2.2-.31-.01-.04-.07-.15-.1-.23-.14-.08-.14-.12-.29-.11-.46,0-.04,0-.07,0-.11h-13.31v1.05s-.24.02-.24.02v-.82s-.11-.25-.11-.25h-.19l-.17.2-.02.89-6.34.15,6.35.15v.93l.15.2.22-.02.11-.22v-.9h.18v1.21h15.73l-.29.33c.36,0,.72,0,1.08,0,.27,0,.57.15.8-.14Z"/>
          <path class="cls-5" d="m70.67,18.53c-.15-.24-.31-.41-.51-.57h-.02s-.05-.07-.08-.1c-.05-.39-.08-.79-.15-1.18-.08-.41-.19-.81-.41-1.15h-3.24l-1.62,1.57,1.59,1.88h4.82c-.16-.14-.29-.3-.38-.46Z"/>
          <path class="cls-5" d="m75.81,18.57c0-.17-.09-.17-.2-.16-.1.02-.15.08-.12.19.05.17.09.34.15.53.2-.16.18-.37.17-.57Z"/>
          <path class="cls-5" d="m77.84,13.02c.11,0,.12-.09.12-.17h-.25c0,.09.03.17.13.17Z"/>
          <path class="cls-5" d="m77.27,15.21c-.07-.01-.12.04-.12.14,0,.19.04.34.26.33.1,0,.17-.05.2-.18-.07-.14-.17-.27-.34-.29Z"/>
          <path class="cls-5" d="m73.97,65.42c.19.11.19.36.35.5.06.04.13.03.19,0,.05.04.1.04.15,0,.38,0,.75.07,1.13.02.17.05.33.06.49.03v-1.71h-.86v.29h-.36v.16h-1.24c.07.09.09.23.13.35-.03.13,0,.25.04.37Z"/>
          <path class="cls-5" d="m71.99,67.37c.22-.15.19-.34.17-.53h-.23c0,.17-.01.35.06.53Z"/>
          <path class="cls-5" d="m76.48,19.26c.1-.25.08-.42-.02-.58-.07.18-.08.35.02.58Z"/>
          <path class="cls-5" d="m73.44,64.7h-.13s.05.02.08.03c.01,0,.03,0,.05-.03Z"/>
          <path class="cls-5" d="m75.2,18.79c.01-.14-.13-.29-.35-.3.02.16.04.32.06.47h.01s0,.04,0,.06c.02.12.03.25.05.37.01.07.05.14.09.2.06.08.14.11.23.05.07-.05.08-.13.05-.2-.07-.21-.16-.4-.14-.64Z"/>
          <path class="cls-5" d="m73.15,18.53c-.01-.15-.12-.16-.23-.15-.11.02-.12.11-.12.21,0,.14.03.26.08.38h.34c-.02-.15-.05-.29-.06-.43Z"/>
          <path class="cls-5" d="m75.78,17.99c.04-.28-.05-.56-.09-.83-.02-.11-.11-.13-.21-.13-.13,0-.13.11-.12.2,0,.09.04.18.06.25-.09.24-.12.46.12.6.11.06.21.08.23-.08Z"/>
          <path class="cls-5" d="m75.78,19.5c-.03.05.03.09.08.1.05,0,.1,0,.13-.06.02-.06,0-.1-.05-.16-.05.04-.13.06-.16.12Z"/>
          <path class="cls-5" d="m68.19,13.77s.08-.1.12-.11c.29-.03.35-.2.35-.5,0-.11,0-.21-.02-.31h-3.54l-.03,2.13h4.05c-.05-.07-.09-.14-.14-.21-.17-.42-.62-.59-.78-1.01Z"/>
          <path class="cls-5" d="m76.07,15.56s.05,0,.06-.02h-.13s.04.02.07.02Z"/>
          <path class="cls-5" d="m72.83,16.32c-.03-.2-.14-.38-.09-.61.02-.07.02-.12,0-.18h-.38c.02.3.1.56.09.83,0,.1-.03.26.13.25.15-.01.27-.1.23-.3Z"/>
          <path class="cls-5" d="m79.67,16.35c0-.08-.02-.15-.03-.23-.02-.24.01-.49-.07-.73-.04-.1-.08-.16-.19-.15-.1.01-.18.08-.15.18.07.32.03.64.09.96.02.13.05.35.23.33.2-.03.13-.22.12-.36Z"/>
          <path class="cls-5" d="m79.39,83.25v-1.61h-.98v2.12h2.17c0-.17,0-.34,0-.52h-1.2Z"/>
          <path class="cls-5" d="m82.16,7.22c-.09.01-.1.09-.08.15.01.03.08.06.12.05.04,0,.08-.06.07-.12-.02-.05-.05-.1-.11-.09Z"/>
          <path class="cls-5" d="m82.72,6.55s.02.05.05.06v-.21s-.06.09-.05.15Z"/>
          <path class="cls-5" d="m82.21,6.69c-.1-.05-.14,0-.16.08-.01.06.04.09.09.11.07.03.14.03.17-.05.03-.09-.05-.11-.1-.14Z"/>
          <path class="cls-5" d="m80.72,12.85c-.04-.41-.07-.82-.09-1.23,0-.12,0-.24-.15-.22-.12.01-.1.13-.1.21.03.45.07.88.1,1.31,0,.12.04.24.18.21.15-.04.08-.16.06-.27Z"/>
          <path class="cls-5" d="m79.78,18.2c.08-.34-.1-.61-.07-.9,0,0-.09-.05-.14-.04-.05,0-.13.07-.13.08.12.27-.02.65.33.87Z"/>
          <path class="cls-5" d="m80.57,11.06c.12.04.13-.08.12-.17,0-.08.02-.19-.09-.21-.1,0-.1.09-.11.15-.01.09-.02.2.08.23Z"/>
          <path class="cls-5" d="m83.49,83.25c0,.14,0,.29-.01.43,0,.03,0,.06,0,.08h.35c0-.17,0-.34,0-.52h-.33Z"/>
          <path class="cls-5" d="m73.01,17.93c0-.08-.02-.15-.03-.23.03-.15.04-.3,0-.45-.04-.13-.15-.15-.26-.11-.11.04-.14.14-.08.22.12.17.11.35.07.54-.02.12.03.24.15.25.15.02.16-.11.16-.23Z"/>
          <path class="cls-5" d="m74.27,12.08s-.04.09-.05.14h.22c-.02-.29-.12-.57-.13-.89-.26.32.05.55-.04.75Z"/>
          <path class="cls-5" d="m82.27,74.45c0-.14,0-.28,0-.43,0-.04.02-.08.03-.11v-.06h-.85v-1.55h-1.05v-3h1.05v-1.1h.71v-.98s-.09-.01-.13-.02c-1.58-.29-3.18-.31-4.78-.35-.8-.02-1.6-.02-2.39-.09-.04,0-.08,0-.11,0v.07h-.29c-.24.12-.4.35-.58.54-.12.13.07.38.05.62-.55.04-1.11.08-1.66.14-.23.02-.47.04-.69.11v.2h2.63v.5h1.08l-.11.18.27.23h.43l.05.23h2.33v.36h-7.39l-.16.15h-.81l-.32.31h-1.86l-.43.43h-.58l-.09.07h-.48l-.1.12h-.61l-.03.17h-.61l-.05.07h-.39l-.09.1h-.36l-.29.13h-2.77s.05,0,.05,0l2.72.06v.08h.51l.53.24h.45l.26.26h.58v.17h.63l.12.12h.5l.09.09h.53v.1h1.81v.25h.46v.29h7.83v.35h-.42v.2h-3.88v3.24h.2v-2.47h8.44Z"/>
          <path class="cls-5" d="m81.67,81.05s-.02-.01-.02-.02c-.14-.07-.27-.05-.41,0-.22,0-.45,0-.67,0,0-.42,0-.84.02-1.26,0,0,0,0,0,0h-4.26v1.35h3.07v-.05h2.29Z"/>
          <path class="cls-3" d="m86.29,29.24c.01.05.04.1.14.1.01-.06.04-.1.03-.13-.05-.1.04-.33-.14-.3-.17.03-.05.21-.03.32Z"/>
          <path class="cls-3" d="m86.46,33.74c.01.09.06.14.13.13.03,0,.05-.09.05-.14,0-.06-.02-.11-.07-.12-.1-.02-.1.07-.11.14Z"/>
          <path class="cls-3" d="m84.04,84.61s0,.02,0,.03h.25c-.07-.04-.14-.1-.24-.03Z"/>
          <path class="cls-3" d="m86.52,25.77c.01-.08-.02-.14-.09-.18-.08-.04-.08.04-.09.08-.02.07,0,.15.07.17.06.02.09-.02.11-.08Z"/>
          <path class="cls-3" d="m85.92,43.05c.08.03.15.03.2-.06.04-.09.08-.19.02-.27-.09-.12-.18-.24-.19-.39-.02-.21.28-.14.29-.36-.17-.12-.34-.08-.37.11-.04.31-.18.65.04.96Z"/>
          <path class="cls-3" d="m69.52,30.61c.1-.25-.03-.48-.02-.72,0-.17-.1-.17-.21-.16-.1,0-.15.06-.14.19.02.15.02.3.03.56,0,.1,0,.31,0,.52,0,.19.12.28.28.24.18-.04.16-.18.07-.3-.08-.11-.06-.21-.02-.32Z"/>
          <path class="cls-3" d="m70.22,30.45c.03-.18.04-.38-.11-.54-.07-.07-.13-.13-.23-.08-.07.04-.09.16-.05.2.15.21.1.45.08.66-.03.34.05.59.29.81.16-.11.2-.27.12-.37-.18-.22-.13-.44-.1-.69Z"/>
          <path class="cls-3" d="m86.41,30.13c.17-.14.08-.29,0-.43-.03-.06-.1-.02-.13.01-.11.13.01.24.05.35,0,.02.05.04.08.06Z"/>
          <path class="cls-3" d="m86.19,28.39c.07.01.12-.02.14-.11.02-.07-.04-.09-.07-.12-.07,0-.13.02-.14.11-.01.07.03.11.07.12Z"/>
          <path class="cls-3" d="m86.32,25.2c.12,0,.19-.09.21-.21.01-.06-.03-.1-.09-.12-.12-.01-.19.06-.22.18-.02.08.02.15.1.15Z"/>
          <path class="cls-3" d="m85.27,38.02c-.02.11-.04.25.07.31.13.07.28.05.39-.07.11-.12.08-.24-.03-.34-.07-.06-.14-.12-.05-.22.14-.15.06-.31.05-.48-.04-.66-.14-1.31-.12-1.97,0-.14-.03-.27-.19-.29.13-.06.18-.19.15-.32-.04-.14-.17-.09-.27-.1-.31,0-.32.04-.12.49.06.02.18.06.18.07-.23.11-.27.27-.11.48-.22.4-.02.81-.04,1.21-.02.42.16.82.08,1.24Z"/>
          <path class="cls-3" d="m84.99,15.86c.04-.2.15-.4-.08-.56.06.19-.14.38.08.56Z"/>
          <path class="cls-3" d="m84.32,6.45c-.15.05-.13.23-.19.35-.03.06.04.11.09.09.16-.04.19-.18.2-.33,0-.06-.02-.1-.1-.11Z"/>
          <path class="cls-3" d="m86.19,84.55c-.09,0-.14.03-.16.09h.25s-.04-.08-.09-.09Z"/>
          <path class="cls-3" d="m85.68,9.04c-.1.03-.13.09-.11.16.02.06.07.07.13.06.07-.02.14-.06.09-.15-.02-.04-.08-.05-.11-.07Z"/>
          <path class="cls-3" d="m85.98,19.04c-.06.01-.1.05-.1.11,0,.1.09.09.15.07.05-.01.09-.06.07-.12-.02-.06-.07-.07-.12-.06Z"/>
          <path class="cls-3" d="m85.74,83.94q.12-.27,0-.6c-.11.21-.13.43,0,.6Z"/>
          <path class="cls-3" d="m85.72,84.58s-.03.04-.04.06h.14s0-.03-.02-.05c0-.02-.07-.02-.08-.01Z"/>
          <path class="cls-3" d="m85.9,6.83c.08-.04.07-.14.02-.19-.17-.16-.05-.41-.17-.59-.2.2-.19.45-.12.69.03.12.16.14.27.09Z"/>
          <path class="cls-3" d="m85.4,82.82s.04-.06.04-.09c0-.06-.04-.09-.1-.09-.05.03-.07.08-.06.13.02.06.07.07.12.04Z"/>
          <path class="cls-3" d="m85.37,84.61s-.07.01-.09.03h.15s-.03-.03-.06-.03Z"/>
          <path class="cls-3" d="m85.3,83.2c0,.31-.11.5.04.68.16-.18.16-.36-.04-.68Z"/>
          <path class="cls-3" d="m85.41,75.54c-.12.19-.11.38,0,.57,0,.01.03.02.06.03.16-.18.17-.39.08-.61,0-.02-.12-.02-.14,0Z"/>
          <path class="cls-3" d="m84.25,72.8c-.08,0-.12.05-.14.13-.02.09-.02.2.06.25.07.04.13-.01.14-.09.02-.11.04-.21-.06-.29Z"/>
          <path class="cls-3" d="m84.52,71.21c0-.06-.04-.11-.09-.11-.1,0-.1.08-.1.16,0,.06.02.11.09.11.09,0,.11-.08.11-.16Z"/>
          <path class="cls-3" d="m84.57,82.94c-.14-.02-.17.14-.14.23.05.18.02.37.09.56-.01-.21.09-.38.14-.57.02-.08.02-.22-.09-.23Z"/>
          <path class="cls-3" d="m88.99,33.05c-.05.24-.09.48-.13.72-.01.08.02.15.11.16.04,0,.08-.02.1-.05v-.9s-.07.03-.08.07Z"/>
          <path class="cls-3" d="m88.9,5.89c.06,0,.1-.03.1-.09,0-.08-.04-.14-.12-.12-.05.01-.08.06-.08.08,0,.1.05.13.1.13Z"/>
          <path class="cls-3" d="m89.01,54.69c.03.24.03.49.06.75v-.89s-.06.08-.06.14Z"/>
          <path class="cls-3" d="m89.07,36.35s0,0-.01,0c-.07-.01-.1.04-.1.1,0,.03.02.08.04.09.03.01.05.02.07,0v-.18Z"/>
          <path class="cls-3" d="m88.96,16.46c-.03.15-.02.24.11.28v-2.06c-.16-.05-.37-.05-.39.05-.05.21-.07.46.24.5-.02.41.14.82.05,1.24Z"/>
          <path class="cls-3" d="m89.01,17.19c-.07.28,0,.57,0,.85,0,.06.02.11.05.15v-1.08s-.04.04-.05.09Z"/>
          <path class="cls-3" d="m89.04,34.38c-.1-.03-.14.03-.14.11,0,.07-.03.16.06.18.05.01.08,0,.1-.04v-.25s-.01,0-.02-.01Z"/>
          <path class="cls-3" d="m87.64,16.33c-.13-.01-.1.12-.12.2.01.07,0,.17.11.15.09-.01.09-.1.09-.17,0-.07,0-.18-.08-.18Z"/>
          <path class="cls-3" d="m87.16,16.58c0-.4.1-.8-.05-1.24-.44.48-.06.85.05,1.24Z"/>
          <path class="cls-3" d="m86.39,9.08c-.19-.02-.16.15-.18.27-.02.1.04.15.12.15.15,0,.22-.11.24-.25.01-.12-.08-.17-.17-.17Z"/>
          <path class="cls-3" d="m89.07,54.3v-.24s-.04.06-.05.1c0,.06.02.1.05.13Z"/>
          <path class="cls-3" d="m89.07,53.33v-.24c-.04.08-.04.16,0,.24Z"/>
          <path class="cls-3" d="m75.03,27.21s0-.03,0-.04h-.05s.02.03.04.04Z"/>
          <path class="cls-3" d="m89.07,35.74v-.21s-.03-.01-.04-.02c-.09-.01-.18,0-.21.11-.02.08.03.1.08.11.06.02.12.02.17,0Z"/>
          <path class="cls-3" d="m86.21,49.03c.02-.07-.03-.09-.08-.1-.06-.02-.09.02-.1.08-.01.06.03.09.08.11.06.01.09-.03.1-.08Z"/>
          <path class="cls-3" d="m85.9,45.41c-.06,0-.09.05-.08.11,0,.06.06.08.11.08.05,0,.11-.01.11-.07,0-.09-.07-.11-.14-.11Z"/>
          <path class="cls-3" d="m85.61,52.47c.02.08.07.11.15.1.08,0,.12-.07.1-.15-.03-.07-.1-.09-.17-.07-.04.02-.1.03-.07.12Z"/>
          <path class="cls-3" d="m85.63,48.94c-.05-.24-.05-.48-.06-.72,0-.14-.14-.15-.24-.08-.1.06-.11.18-.12.3.11.16.03.36.07.54.03.13.12.18.23.17.11-.01.15-.11.13-.21Z"/>
          <path class="cls-3" d="m85.4,40.06c.08-.02.09-.1.07-.18-.04-.16-.09-.31-.16-.52-.16.24-.15.42-.09.6.02.07.09.12.17.1Z"/>
          <path class="cls-3" d="m86.71,34.71c-.2-.03-.19.18-.21.32-.03.22-.08.45-.06.67.02.2.2.4-.01.55.01.14.02.24.14.24.11,0,.13-.09.16-.19.05-.18-.25-.26-.11-.45.18-.24.14-.54.21-.81.04-.17.08-.32-.11-.35Z"/>
          <path class="cls-3" d="m86.17,50.43c-.08.32-.05.53-.02.8q.16-.43.02-.8Z"/>
          <path class="cls-3" d="m87.77,33.03c-.13.24.09.43.09.65.1-.19.15-.38.19-.58.02-.08,0-.16-.07-.19-.11-.04-.17.03-.21.12Z"/>
          <path class="cls-3" d="m86.36,52.35c-.07-.02-.16,0-.18.06-.02.1.05.16.15.17.07,0,.13-.01.16-.1,0-.1-.07-.11-.13-.12Z"/>
          <path class="cls-3" d="m84.41,51.1c.03-.24.09-.48-.05-.71q-.34.34-.21.93v.04s.05-.02.05-.02c.09.06.19.1.28.02.06-.05.03-.13-.03-.18,0-.04,0-.07-.04-.08Z"/>
          <path class="cls-3" d="m74.94,28.4s.03.12.05.12c.07,0,.12-.04.13-.12.06-.24.09-.47-.14-.68-.07.24-.06.45-.03.67Z"/>
          <path class="cls-3" d="m84.79,25.66c0,.05,0,.1.04.13.08-.01.11-.08.12-.15,0-.03-.01-.08-.03-.09-.08-.03-.11.03-.13.1Z"/>
          <path class="cls-3" d="m74.98,27.43s.07.02.09,0c.07-.08.05-.15-.03-.2-.07.05-.11.11-.05.2Z"/>
          <path class="cls-3" d="m70.86,30.76c-.05.02-.06.08-.06.14,0,.06.04.12.1.1.06-.02.06-.08.05-.14-.01-.05-.03-.12-.1-.1Z"/>
          <path class="cls-3" d="m84.44,49.92c.02-.15,0-.3,0-.45,0-.13-.06-.21-.18-.22-.14-.01-.23.07-.27.21-.03.1.02.18.04.28-.01.04-.03.1-.04.15,0,.2.09.33.27.35.23.02.17-.2.18-.32Z"/>
          <path class="cls-3" d="m74.26,31.51c-.07.08.01.17,0,.26-.02.1,0,.19.1.23.07.02.14-.02.18-.09.04-.08.06-.18-.01-.26-.07-.07-.13-.19-.26-.14Z"/>
          <path class="cls-3" d="m88.04,47.8s-.07.03-.08.05c-.02.06,0,.11.07.12.03,0,.07-.02.08-.05.02-.06-.01-.1-.07-.12Z"/>
          <path class="cls-3" d="m87.21,67.28c-.09,0-.19.05-.19.14,0,.08.07.21.12.22.11,0,.18-.09.19-.21,0-.08-.05-.13-.12-.15Z"/>
          <path class="cls-3" d="m87.49,62.94c-.1-.02-.08.09-.09.14,0,.11.04.21.12.23.06.01.12-.08.11-.16-.01-.09-.04-.2-.13-.22Z"/>
          <path class="cls-3" d="m88.11,83.13c.05.05.14.07.19.01.12-.15,0-.26-.08-.47-.12.19-.25.3-.11.45Z"/>
          <path class="cls-3" d="m87.07,68c-.06,0-.08.06-.08.11,0,.07,0,.15.09.15.06,0,.09-.04.09-.1,0-.07-.02-.14-.1-.16Z"/>
          <path class="cls-3" d="m87.01,75.33c-.13.28-.27.55-.1.86-.17.28-.2.59-.11.91.01.05.11.06.13,0,.12-.3.2-.6.04-.91.29-.28.1-.57.05-.87Z"/>
          <path class="cls-3" d="m86.12,77.98s-.04-.06-.07-.06c-.03,0-.09,0-.09.02-.05.29-.25.57-.02.93.3-.28.13-.6.18-.88Z"/>
          <path class="cls-3" d="m86.03,77.1c.02.14-.17.27-.02.41.02.02.07.03.1.02.17-.08.12-.25.12-.4,0-.04-.01-.07-.02-.11.06-.52.21-1.03.04-1.56-.09.55-.35,1.06-.21,1.64Z"/>
          <path class="cls-3" d="m87.75,36.87c-.02.05,0,.11.04.12.05.02.09,0,.11-.05.02-.09-.03-.11-.08-.12-.02,0-.07.02-.08.04Z"/>
          <path class="cls-3" d="m87.77,28.6c.11,0,.17-.11.12-.24-.02-.07-.07-.12-.1-.18-.09.04-.09.12-.11.19-.02.1,0,.23.08.23Z"/>
          <path class="cls-3" d="m87.7,27.59c0-.07,0-.16-.08-.17-.12-.01-.11.11-.12.18.02.07,0,.16.1.15.08-.01.09-.09.1-.16Z"/>
          <path class="cls-3" d="m87.92,31.95c.05,0,.1-.02.1-.09-.01-.05-.03-.11-.1-.09-.03,0-.06.04-.07.07-.03.07.02.1.07.1Z"/>
          <path class="cls-3" d="m87.85,35.59c.01-.07-.01-.16-.1-.16-.19,0-.13.17-.15.28,0,.08,0,.18.09.18.17,0,.14-.18.16-.29Z"/>
          <path class="cls-3" d="m88.22,83.37c-.1.07-.09.17-.12.25-.04.1-.01.21.08.23.15.03.14-.11.15-.21,0-.09,0-.19-.11-.27Z"/>
          <path class="cls-3" d="m85.76,82.63c-.06,0-.09.05-.1.11,0,.09.03.15.12.13.05-.01.08-.07.08-.13-.01-.06-.04-.11-.1-.11Z"/>
          <path class="cls-3" d="m88.08,46.65c-.07-.19-.14-.38-.09-.6.02-.07-.03-.16-.1-.17-.12-.02-.14.1-.15.18-.01.07,0,.15,0,.35-.01.05,0,.21.12.35.05.06.12.08.19.04.06-.03.06-.1.04-.15Z"/>
          <path class="cls-3" d="m77.03,28.76c-.1,0-.17.08-.13.18.07.16-.02.43.22.45.16.01.15-.17.15-.3,0-.18-.02-.35-.25-.34Z"/>
          <path class="cls-3" d="m82.97,24.01s.04-.06.06-.09h-.11s.05.05.06.09Z"/>
          <path class="cls-3" d="m81.41,25.68s.06-.09,0-.13c-.08-.02-.13.02-.17.08-.02.03-.03.06-.03.09h.19s.01-.02.02-.03Z"/>
          <path class="cls-3" d="m82.77,25.07c.09-.02.23,0,.24-.15,0-.1-.11-.13-.2-.14-.09,0-.16.05-.18.16,0,.09.07.14.14.13Z"/>
          <path class="cls-3" d="m79.24,25.05c.11.01.15-.07.16-.16,0-.06-.02-.12-.08-.13-.11-.02-.15.07-.16.16,0,.06.02.11.08.12Z"/>
          <path class="cls-3" d="m79.97,24.66c-.1.02-.11.13-.12.22.01.09.06.15.13.14.09-.01.16-.07.15-.19-.01-.1-.05-.19-.16-.16Z"/>
          <path class="cls-3" d="m79.31,25.72s.03-.07.04-.11c.01-.06-.03-.1-.08-.13,0,0-.01,0-.02,0v.23h.06Z"/>
          <path class="cls-3" d="m82.94,30c.12,0,.2-.03.18-.19-.02-.18-.02-.4-.24-.43-.11-.01-.16.11-.17.29.07.08,0,.31.23.33Z"/>
          <path class="cls-3" d="m83.54,37.53c-.14-.59.03-1.19-.04-1.79-.05.01-.1,0-.11.03-.35.59-.19,1.25-.22,1.88,0,.09.07.18.18.16.15-.03.23-.15.2-.28Z"/>
          <path class="cls-3" d="m82.89,30.58c.12.02.2-.09.21-.2.01-.11-.06-.17-.17-.19-.09.03-.2.07-.21.21,0,.11.08.18.17.19Z"/>
          <path class="cls-3" d="m81.5,24.25c.17.02.15-.18.14-.33h-.26c-.05.15-.11.31.12.33Z"/>
          <path class="cls-3" d="m74.32,28.5c0-.11-.08-.15-.16-.17-.06-.01-.07.06-.07.11,0,.11.06.16.13.17.08,0,.11-.05.1-.11Z"/>
          <path class="cls-3" d="m82.67,27.42c-.08.22.07.37.01.54-.03.1-.03.2.1.2.09,0,.21-.03.22-.12.01-.2.17-.37.14-.6-.17-.05-.33.06-.47-.02Z"/>
          <path class="cls-3" d="m77.79,29.27s-.03.05-.05.07c0,.08.04.14.11.17.06.02.08-.04.08-.1,0-.08-.07-.12-.13-.14Z"/>
          <path class="cls-3" d="m84.21,46.34c0-.11.02-.23,0-.34-.03-.16-.13-.29-.29-.26-.16.02-.23.16-.22.33,0,.09.06.16.04.27-.06.25.05.41.29.41.28,0,.21-.23.19-.41Z"/>
          <path class="cls-3" d="m81.23,28.7c.38-.55.4-.86.13-1.34-.03-.05-.07-.07-.13-.06-.07.01-.09.07-.08.12.1.39,0,.8.08,1.29Z"/>
          <path class="cls-3" d="m84.08,47.92c.31-.01.2-.28.19-.47,0-.04,0-.08,0-.11.06-.22-.03-.38-.22-.38-.24,0-.33.16-.24.42.01.03.01.07,0,.11-.03.23,0,.44.26.43Z"/>
          <path class="cls-3" d="m81.23,29.68c.01.05.05.1.11.11.06,0,.11-.03.12-.08.02-.27.1-.53.06-.81-.02-.13-.08-.16-.17-.15-.1,0-.19.06-.15.17.04.12.03.22,0,.37.1.1,0,.26.03.41Z"/>
          <path class="cls-3" d="m83.5,38.21c-.06-.04-.14.02-.18.08-.13.21-.04.33.21.45.04-.21.15-.38-.03-.53Z"/>
          <path class="cls-3" d="m84.05,45.58c.2-.04.09-.22.09-.32,0-.15-.06-.29-.08-.44-.03-.17-.08-.3-.27-.25-.17.04-.2.19-.21.35.09.14,0,.3.05.44.07.24.23.27.42.23Z"/>
          <path class="cls-3" d="m83.95,44.23c.1.01.15-.06.16-.17.06-.55.18-1.1.06-1.66-.02-.08-.11-.17.01-.24.07-.04.2-.02.13-.17-.05-.11-.15-.09-.23-.08-.19.01-.2.16-.23.32-.09.65-.11,1.3-.27,1.92.12.13.25.07.37.09Z"/>
          <path class="cls-3" d="m77.14,28.52c.16-.09.14-.24.1-.39.06-.29-.02-.54-.16-.78-.02-.07,0-.13.01-.18h-.18c0,.11-.04.22-.06.32-.03.07-.02.14.02.21-.01.22-.04.45-.03.67.01.2.13.25.29.15Z"/>
          <path class="cls-3" d="m82.77,26.05s-.03,0-.04.01h.09s-.04,0-.05-.01Z"/>
          <path class="cls-3" d="m74.78,29.02c-.07.29.2.52.06.85.34-.06.41-.24.32-.49-.05-.13-.1-.24-.08-.38.02-.11.04-.25-.11-.27-.18-.02-.16.16-.19.28Z"/>
          <path class="cls-3" d="m79.24,27.2s.05-.02.07-.03h-.15s.06.03.08.03Z"/>
          <path class="cls-3" d="m82.68,47.31c-.11,0-.15.08-.15.18,0,.14.06.21.18.22.08,0,.19,0,.18-.12,0-.15-.07-.24-.21-.28Z"/>
          <path class="cls-3" d="m82.74,33.79c0-.12-.07-.16-.17-.17-.1-.01-.16.02-.18.14-.03.26-.07.52-.11.76,0,.11,0,.21.02.3.01.1.06.18.17.17.08-.01.12-.09.11-.17-.04-.25.03-.48.13-.7.04-.09.03-.22.03-.34Z"/>
          <path class="cls-3" d="m82.07,47.33c-.15-.01-.17.11-.19.21-.03.11-.04.25.07.29.1.04.21-.05.23-.17.02-.12.04-.26-.1-.34Z"/>
          <path class="cls-3" d="m80.48,43.57c.08.03.21.02.23-.08.05-.26-.19-.2-.3-.3-.02.15-.14.31.07.38Z"/>
          <path class="cls-3" d="m80.81,46.96c-.14-.02-.18.07-.18.2,0,.06-.03.11-.04.16,0,.18-.11.45.12.48.3.04.17-.29.21-.42,0-.1,0-.16,0-.21,0-.09.02-.2-.11-.22Z"/>
          <path class="cls-3" d="m82.66,45.22c0-.07-.07-.12-.14-.14-.07,0-.13.04-.14.12,0,.08,0,.15.09.15.09,0,.18-.02.18-.13Z"/>
          <path class="cls-3" d="m80.58,44.08c-.01-.09-.09-.09-.15-.08-.06.01-.15.03-.11.13.03.07.11.07.18.07.06,0,.1-.05.09-.11Z"/>
          <path class="cls-3" d="m82.63,46.62c.18-.11.2-.24.19-.37,0-.16-.08-.31-.25-.27-.13.03-.06.18-.04.28.02.11.06.21.1.35Z"/>
          <path class="cls-3" d="m82.48,39.7c-.03-.22-.24-.22-.37-.33-.06.16.05.3.04.44,0,.13.05.23.19.2.17-.04.16-.18.14-.31Z"/>
          <path class="cls-3" d="m82.11,38.16c-.19.14-.08.34-.08.51,0,.05.04.1.06.15,0,.05,0,.11,0,.16,0,.06-.01.16.09.14.09-.02.07-.1.06-.17-.01-.05-.03-.1-.04-.15.02-.03.04-.06.06-.1.06-.18.09-.37-.05-.53-.02-.02-.07-.04-.09-.02Z"/>
          <path class="cls-3" d="m82.4,35.22c-.13.19-.11.37.06.56.06-.2.17-.37.03-.57-.01-.02-.08-.01-.09,0Z"/>
          <path class="cls-3" d="m79.25,29.95c.21-.38.03-.74.04-1.08,0-.04-.02-.07-.03-.11-.05-.31.11-.61.08-.93-.19.03-.25.13-.25.28,0,.22.02.44.04.66-.06.06-.07.13-.01.21-.02.33-.16.67.13.99Z"/>
          <path class="cls-3" d="m74.87,30.12c-.07.04-.08.14-.04.2.12.17.03.37.07.55.03.12-.02.3.18.27.14-.02.21-.13.2-.29-.08-.2-.02-.45-.2-.62-.07-.06-.11-.16-.21-.11Z"/>
          <path class="cls-3" d="m76.63,30.22c.04-.08-.09-.14-.18-.15-.09,0-.19,0-.21.11-.02.11-.02.23-.03.35.02.16.02.33.1.49.05.09.12.13.22.12.13-.02.09-.14.11-.22.06-.23-.14-.46,0-.71Z"/>
          <path class="cls-3" d="m83.86,22.65c.06,0,.09-.05.09-.11,0-.08,0-.16-.09-.16-.08,0-.11.06-.13.14,0,.08.04.14.12.14Z"/>
          <path class="cls-3" d="m82.86,27.21c.05,0,.09,0,.11-.04h-.27s.11.03.16.04Z"/>
          <path class="cls-3" d="m83.42,33.27c.07-.07.11-.21.23-.14.11.07.06.22.02.31-.1.24-.02.43.11.61-.23.19,0,.37.01.56,0,.07.05.09.04.03-.02-.2.26-.35.05-.56.08-.28-.02-.55,0-.83.03-.52.03-.52-.43-.52-.1,0-.2.03-.3.05-.3-.04-.56.22-.87.12-.6,0-1.19-.09-1.78.07-.16.15-.05.3-.01.46,0,0,0,.01,0,.01.08.3.16.61.1.93,0,.09.01.19.02.28.05.47-.1.96.18,1.4.04.06.07.25-.05.3-.32.14-.18.17.02.25.14.06.28.01.41.04.19.04.25-.07.26-.25,0-.37.15-.73.08-1.11.16-.04.05-.29.22-.32.06.14-.09.35.14.48.02-.22.04-.41.06-.6.07-.33-.09-.51-.35-.63.39-.1.41-.1.46-.57.02-.22.12-.39.23-.55.05-.01.11-.05.15-.04.25.14.27.14.55.02.04-.02.1.01.15.02,0,.22.09.35.28.17Z"/>
          <path class="cls-3" d="m79.19,30.98c.06.28,0,.56.02.84.01.09-.04.2.08.22.13.02.11-.1.13-.19.1-.41,0-.83.07-1.3-.26.11-.34.25-.31.43Z"/>
          <path class="cls-3" d="m83.05,31.27c.04-.06.1-.12.1-.18,0-.08-.07-.13-.15-.11-.07.02-.14.07-.1.16.02.06.09.09.15.14Z"/>
          <path class="cls-3" d="m79.97,31.08s-.03.06-.05.08c-.07.07-.03.14.03.19.05.05.1,0,.13-.04.05-.07.05-.14-.04-.18-.03-.02-.06-.03-.08-.06Z"/>
          <path class="cls-3" d="m79.98,30.26c-.13.12-.12.3-.15.47-.02.13.05.21.13.29.03-.08.08-.16.09-.24.02-.16.15-.32.02-.48-.02-.02-.08-.04-.09-.03Z"/>
          <path class="cls-3" d="m80.3,44.54s-.02.07-.03.11c-.02.09-.03.19.07.24.05.02.11-.03.12-.08.02-.09.04-.19-.15-.27Z"/>
          <path class="cls-3" d="m80.03,28.39c.03-.07.05-.15-.02-.2-.07-.05-.17-.06-.25-.02-.09.05-.08.15-.04.24.04.1.09.19.17.36.06-.18.1-.29.14-.39Z"/>
          <path class="cls-3" d="m81.35,25.1c.09,0,.18-.04.2-.15.02-.12-.07-.16-.16-.17-.1,0-.16.06-.17.16,0,.09.05.16.13.16Z"/>
          <path class="cls-3" d="m81.45,68.2v1.1h-1.05v3h1.05v1.55h.85v.06s0,0,0,0c.11-.07.21-.14.32-.21,0,0,.01,0,.01,0,.19-.16.12-.38.1-.59,0-.06.02-.12.03-.17.12-.54.17-1.1.16-1.66,0,0,0-.02,0-.02.06-.13.03-.3.15-.41.73.06,1.47.09,2.2.08.43.12.87.03,1.31.1.09.02.19-.03.2-.14.01-.11-.06-.17-.16-.19-.03,0-.07,0-.1,0-.19.08-.25-.01-.27-.2-.01-.13-.06-.26-.09-.39.04-.11.04-.21,0-.32-.07-.81-.06-1.61.04-2.41.05-.2.06-.38-.22-.37-.3,0-.59,0-.89,0-.31.01-.31.02-.31.45-.01.04-.02.09-.03.13-.06,0-.12-.02-.18-.02-.01-.07-.02-.13-.04-.2,0-.09-.01-.19-.02-.28-.02-.33-.02-.34-.3-.14-.08.06-.16.06-.25.06-.34,0-.67,0-1.01-.02-.23-.01-.45-.09-.62.16-.04.06-.1.07-.17.07v.98h-.71Z"/>
          <path class="cls-3" d="m78.37,21.82v.6h1.08v.22c.1,0,.2,0,.29-.02.23-.02.38-.03.39-.31,0-.22.1-.27.31-.26,1.65.03,3.3.04,4.95.05.21,0,.42.02.61-.13.15-.12.34-.08.52-.08.48-.01.96.03,1.43-.04.39-.05.52-.16.56-.6.02-.21.04-.42.05-.63.01-.21.02-.42.04-.69-3.16.12-6.32.38-9.49.6v1.28h-.74Z"/>
          <path class="cls-3" d="m76.27,65.97c.06-.01.11-.03.17-.05,1.33.01,2.66.05,4,0,.04.06.09.12.17.12,1.06.05,2.11.13,3.17.07.04,0,.07,0,.11.01.22.02.56-.11.35.38-.03.07.06.2.15.18.07-.01.17-.11.14-.21-.07-.27.03-.51.08-.77.03-.16.12-.17.23-.15-.02.18-.15.37.01.55.41.13.84.09,1.26.12.16.01.23-.1.18-.26-.06-.22-.15-.42-.08-.66.08-.27-.04-.47-.22-.65-.32-.31-.55-.69-.82-1.04-.48-.63-.6-1.38-.51-2.14.04-.31-.06-.49-.14-.72-.04-.11-.13-.12-.22-.09-.09.02-.1.11-.1.18,0,.25,0,.51,0,.86-.18-.39-.24-.73-.22-1.01.02-.27.14-.42.4-.43.12,0,.25.02.37.02.06.03.13.09.19.09.31-.02.63.05.87.17.24.13.59-.14.74.25,0,.01.1,0,.14-.02.69-.33,1.4-.24,2.12-.18.09,0,.18.03.27.04v-.23c-.09,0-.18,0-.27,0-.38-.02-.77.12-1.13-.12.11-.22-.06-.34-.15-.48-.2-.53-.21-.53-.64-.52-.19-.02-.38.01-.56-.07.16-.39.22-.89.07-1.02-.14-.12-.18-.09-.01-.24.14-.12-.05-.15-.14-.17,0-.04-.01-.07-.02-.11.16,0,.32-.01.48,0q.52.01.5-.57s-.01-.07-.02-.11c.02-.09.05-.19-.07-.23h0c0-.38.03-.76-.04-1.14.05-.31,0-.7.17-.92.26-.35.19-.68.16-1.04,0-.24.11-.49-.05-.72-1.01-.02-2.01-.05-3.02-.07-.13-.25.07-.22.18-.26.12-.04.19-.15.07-.23-.2-.13-.28-.25-.18-.5.04-.09-.05-.18-.15-.19-.12-.01-.16.09-.14.18.04.29.1.58.15.85-.16.13-.34.02-.48.11-.19-.04-.38-.06-.57-.02-.3-.14-.6-.1-.91-.05-.28,0-.57,0-.85-.01-.46-.05-.93-.06-1.4-.01-1.06-.02-2.12-.05-3.18-.07-.11-.05-.23-.06-.34-.01-.1,0-.2-.01-.3-.02-.11-.05-.22-.05-.33-.02-.32-.04-.64-.04-.96,0-.43-.05-.85-.08-1.28,0-.24-.04-.48-.09-.72-.02-.33-.09-.66-.04-.99-.05-.12,0-.3.03-.3-.14,0-.39-.3-.72-.14-1.14.06-.15.05-.35-.19-.35,0-.04,0-.08,0-.12,0-.08,0-.15,0-.23,0-.08,0-.15,0-.23.08-.57-.16-1.16.11-1.72.13-.14.23-.43.15-.49-.25-.2-.09-.25.02-.42.23-.32.16-.53-.18-.71-.13-.06-.25-.15-.4-.14-.04-.04-.08-.08-.12-.13.03-.1.06-.21.1-.31,0-.04,0-.09,0-.13.03-.08-.01-.23.09-.24.16-.02.1.15.13.24,0,.02,0,.04.01.05,0,.14.01.26.18.27.16.01.31.03.45-.08.08-.03.11-.08.11-.17.32-.08.64.03.96-.03.07.09.14.1.21,0,.12-.02.27.01.33-.15.03,0,.06,0,.09.01.01.03.02.06,0,.09,0,.07,0,.12.09.1.14,0,.29-.01.43-.02.11.06.22.12.33.18.06.11.19.24.17.33-.11.51.19.99.07,1.5-.04.19.1.31.29.32.17,0,.32-.07.34-.27.02-.15,0-.3-.01-.45-.07-.71-.15-1.42-.23-2.14.02-.15.04-.3.05-.45,0-.24.04-.5-.19-.66-.1-.15-.23-.23-.4-.2-.1.01-.21.02-.3-.05.03-.07.07-.15.1-.22,0-.04,0-.08,0-.12,0-.07,0-.14,0-.21v-.04c.07-.07.16-.13.01-.23-.04-.03-.09-.06-.13-.09,0-.04,0-.08-.01-.11.02-.18.07-.37-.09-.51,0-.01-.02-.04-.03-.04-.03,0-.05.02-.08.03-.11,0-.21,0-.32,0,0-.06,0-.11,0-.17.03-.1.09-.24,0-.31-.18-.14-.09-.33-.11-.5.06-.39-.13-.76-.1-1.15.04-.23.08-.45.12-.68.04-.03.08-.07.12-.1,1.24,0,2.47.14,3.71.06.36.09.73,0,1.09.03.26.03.22-.16.17-.33-.05-.48.19-.94.14-1.43-.21-.1-.44-.06-.66-.04q-.44-.06-.41-.51s.01-.07.02-.11c.07-.02.1-.08.09-.16.07-.01.13-.03.2-.04.21.14.45.05.67.08.19.02.29-.06.31-.28.03-.24.02-.5.19-.7.1.01.19.03.29.04.09.06.18.1.23-.04.07-.62.26-1.22.25-1.86.18-.5.15-1.05.29-1.56.05-.2-.05-.28-.23-.28-.46,0-.92,0-1.38.01-.03,0-.06,0-.09-.01-.36-.16-.72-.14-1.09-.05-.41,0-.83,0-1.24-.01-.05-.07-.1-.07-.15,0-1.59,0-3.18.04-4.78-.03-.6-.15-1.21-.15-1.82,0-.11,0-.21,0-.32,0-.46-.17-.94-.1-1.41-.08-.3.02-.55-.03-.79-.19-.03-.02-.06-.04-.07-.08,0,0,0,0,0-.01h-1.47v1.75h-.81v1.2h1.02v.55h10.29v1.05h-4.06v.4h-2.84l-.34.25h-5.15v.6h-2.44v2h2.1v.5h.95v.45h5.55v.65h-2.5v4.9h3.25v1.25h-.61v.85h.95v1.65h-1.56v1.35h-1.15v.95h.88v2.8h10.43v1.45h1.08v.75h.98v1.95h2.34v.45h-9.21v4.1h1.69v1.71Z"/>
          <path class="cls-3" d="m83.79,77.24c-.08,0-.11.05-.13.13-.02.08,0,.17.05.19.09.02.15-.06.17-.15.01-.07-.01-.14-.1-.17Z"/>
          <path class="cls-3" d="m80.89,14.14c-.02-.24.12-.57-.34-.76.24.56.01,1.07.26,1.54.13-.25.1-.52.09-.78Z"/>
          <path class="cls-3" d="m82.25,77.11c-.16-.02-.27.08-.3.25-.05.25,0,.48.19.66.31-.09.22-.39.27-.61.03-.1.01-.28-.16-.3Z"/>
          <path class="cls-3" d="m80.86,15.29c-.12-.01-.15.08-.17.17-.02.12-.08.28.09.31.12.02.18-.1.2-.21.02-.12-.01-.22-.12-.27Z"/>
          <path class="cls-3" d="m84.05,74.58c.16-.29.23-.59.1-.91-.13.3-.16.6-.1.91Z"/>
          <path class="cls-3" d="m83.72,82.61c-.13.09-.21.17-.22.28,0,.12,0,.24,0,.36h.33c-.01-.21-.05-.43-.11-.64Z"/>
          <path class="cls-3" d="m82.81,6.38s-.03.01-.04.02v.21s.04,0,.07-.02c.03-.03.07-.09.07-.13,0-.06-.04-.1-.1-.08Z"/>
          <path class="cls-3" d="m76.63,49.64s-.07.03-.08.05c-.02.09.03.14.1.16.05.01.1-.01.12-.08-.01-.09-.07-.12-.14-.13Z"/>
          <path class="cls-3" d="m80.59,83.25c0-.43.01-.86.03-1.29.2.04.34.07.48.1-.05.25.2.55-.13.75-.03.02,0,.11.06.13.26.12.52.24.81.22.13,0,.2-.19.11-.23-.33-.15-.1-.37-.1-.56,0-.26.04-.55.1-.77.09-.36-.08-.43-.26-.56h-2.29v2.2h1.2Z"/>
          <path class="cls-3" d="m80.59,79.48c.1-.38.1-.37-.28-.38-.03,0-.06-.02-.1-.03-.06-.08-.03-.18-.05-.27-.03-.24.19-.59.02-.69-.23-.15-.55-.21-.85-.2-.3,0-.6,0-.9-.08.26,0,.53-.02.79,0,.32.03.61-.16.94-.1.12.02.16-.13.17-.25.02-.19.03-.38.04-.57,0-.09,0-.24.12-.22.29.06.29-.26.42-.34.28-.16.24-.44.33-.69.11.16.05.32.1.45.04.09.09.16.2.08.19-.2.11-.44.09-.67,0,0,0-.03,0-.03.03-.05.06-.11.09-.16.11.01.22.08.32,0,.14-.28.2-.56.22-.86h-8.44v5.3h6.75c0-.09,0-.19.01-.28Z"/>
          <path class="cls-3" d="m77.07,43.38s-.04.08-.03.1c.1.11.21.09.33.03.01,0,.02-.03.05-.07-.11-.08-.2-.2-.34-.06Z"/>
          <path class="cls-3" d="m83.85,37.04c.04.06.08.13.17.1.06-.02.07-.07.08-.13.02-.31.01-.62-.13-.91-.04.23-.09.45-.16.67-.03.09,0,.19.06.27Z"/>
          <path class="cls-3" d="m79.72,18.43c-.16,0-.12.15-.12.22,0,.3.04.56.16.81.03.07.1.1.18.09.09-.02.11-.1.1-.17-.03-.24-.07-.49-.11-.73-.02-.12-.08-.22-.2-.21Z"/>
          <path class="cls-3" d="m82.8,28.97c.19.02.26-.15.23-.35-.02-.13.04-.34-.19-.32-.22.02-.15.2-.13.34.02.11-.09.31.08.32Z"/>
          <path class="cls-3" d="m84.45,48.9c.06-.08-.12-.76-.21-.79-.15-.05-.28-.02-.36.14-.04.09-.03.18,0,.29,0,.08-.01.17,0,.26.02.17.11.27.28.3.16.02.21-.11.29-.21Z"/>
          <path class="cls-1" d="m107.6,40.73c.59-.6,1.38-.98,1.99-1.58,1.02-1,.99-2.01.04-3.04-.8-.86-1.65-1.69-2.32-2.64-1.68-2.38-2.76-4.97-2.59-8.09.2-3.59.3-7.2-1.26-10.56-.1-.23-.12-.55-.08-.81.81-4.25-.76-7.33-3.84-9.6,0,.22-.02.43-.1.64-.11-.26-.13-.52-.1-.79-.07-.05-.15-.11-.22-.16-5.29-3.65-10.92-4.72-16.76-3.78.01.25-.15.39-.07.69-.21-.31-.21-.32.05-.68-1.35.22-2.7.54-4.07.97-.83.25-1.65.59-2.44.98,0,0,0,.01,0,.02-.1.3-.14.61-.16.92,0,.12-.01.23-.02.35.04.24.07.47.11.71-.18.08-.35.05-.52.03-.18.03-.35.03-.53,0-.07,0-.14.02-.22.02,0,0,0,0,0,0-.03.07-.07.15-.1.22,0,.32-.11.63-.17.94-.04.18-.06.36-.03.55.09.14.13.29.07.46.05.11.06.22.04.34.09.18.09.37.08.57.02.2-.03.36-.24.35-.7-.04-1.41.05-2.12-.06-.31-.05-.67,0-1.01.04-.25.03-.42-.01-.46-.31-.07,0-.14,0-.21,0-.07.25-.1.57-.46.28-.06-.05-.14-.03-.19.02-.16.17-.32.09-.48,0-.11-.07-.22-.08-.35-.04-.24.09-.31-.07-.34-.28-.07,0-.14,0-.2,0-.17.32-.26.32-.43,0-.03-.02-.07-.04-.1-.06-.04.02-.07.04-.11.06-.21.32-.34.32-.54,0-.68-.05-1.35-.05-2.03-.02.04.61.37,1.11.57,1.65.05.03.07.06,0,.09l-.02.04c-.06.12-.14.09-.22.04l-.02-.02v-.03c-.36.01-.74.02-1.11.04-.01.05-.02.11-.03.16.51.01,1.03.02,1.54.03.11-.02.25-.02.28.09.12.4.41.33.69.34.51.03,1.01.07,1.52.11.14.01.31,0,.3.22,0,.18-.1.34-.29.35-.37.01-.74.04-1.11-.03-.07-.01-.13-.06-.2.01,0,.19.14.13.23.14.16.01.32,0,.48,0,.74,0,.79.07.66.86.18.17.15.39.14.61.04.25.09.49.12.75.01.1.02.21.02.31,0,.3-.05.47-.35.5-.04,0-.08.07-.12.11.17.42.62.59.78,1.01.05.07.1.14.14.21.08.12.16.25.25.37.05.06.09.12.13.18.21.34.33.74.41,1.15.07.39.1.79.15,1.18.03.03.05.06.08.1h.02c.2.16.36.33.51.57.1.15.23.31.38.44.13.11.28.2.45.25.4.11.44.12.44.48,0,.03,0,.07,0,.11,0,.16.03.32.11.46.08.05.19.07.23.14.11.22.17.17.31.01.06-.07.24-.04.36-.04.67-.01,1.34-.02,2.01-.03.12,0,.17-.13.28-.14.09-.01.11.07.13.14.03,0,.07.02.1.03.04,0,.08,0,.12.01.14.03.27-.06.4-.05.21.01.47.02.44.38.03.01.07.01.1,0,.07-.47.08-.48.44-.33.07.03.11.19.21.08.29-.34.47-.16.63.15.43-.03.87-.06,1.3-.09,3.17-.22,6.33-.48,9.49-.6-.01.27-.02.48-.04.69-.01.21-.03.42-.05.63-.04.44-.17.55-.56.6-.48.06-.96.02-1.43.04-.18,0-.37-.04-.52.08-.19.15-.4.13-.61.13-1.65-.01-3.3-.02-4.95-.05-.21,0-.3.04-.31.26,0,.28-.16.3-.39.31-.1,0-.2.01-.29.02-.86.04-1.72-.02-2.58-.05-.29,0-.63.26-.89-.1-.03-.04-.06-.03-.08,0-.23.29-.53.15-.8.14-.36,0-.72,0-1.08,0-2.83-.01-5.67.02-8.5-.07-.12,0-.3-.05-.31.12-.04.54-.39.43-.7.41-.2-.01-.41-.11-.52.21-.04.12-.22.22-.41.18-.69-.15-1.36.06-2.03.16-.16.02-.37-.02-.48.18,0,.14.02.28.03.42,0,0,.02.03.02.03.06,0,.08.05.07.1.16.15.52.05.47.46,0,.08.09.13.16.11.47-.1.46.27.49.58.03.25.05.49.07.74.02.28.06.46.43.42.18-.02.41-.11.61,0,.08-.06.12-.13.11-.23-.02-.13-.04-.29.13-.3.15,0,.19.13.19.27,0,.07.01.15.02.22,0,0,.02.01.02.01.06,0,.09.03.09.09.09.07.11.17.12.28.04.05.08.1.11.15.16,0,.33-.02.49-.03.14-.04.2.05.22.17.02.2.06.42-.1.59,0,.05,0,.1,0,.15.14.17.09.37.09.56.01.04.03.08.04.11.08.08.07.14-.01.21,0,0,0,.03,0,.03.02.21.36.27.23.56.01.07.03.14.04.22.09.05.11.14.12.24.01.15.01.3.02.45q.09,1.02,1.02,1.04c.13,0,.29-.08.37.11.02.03.05.07.07.1.18.21.17.46.12.71,0,0,0,0,0,.01.01.04.03.07.07.08.24.16.5.21.79.19.47-.02.94-.1,1.41.08.11,0,.21,0,.32,0,.61-.15,1.21-.14,1.82,0,1.59.06,3.18.02,4.78.03.05-.06.1-.06.15,0,.41,0,.83,0,1.24.01.37-.09.73-.11,1.09.05.03,0,.06.01.09.01.46,0,.92,0,1.38-.01.17,0,.28.08.23.28-.14.51-.11,1.06-.29,1.56.02.63-.18,1.23-.25,1.86-.06.15-.14.11-.23.04-.1-.01-.19-.03-.29-.04-.16.2-.16.46-.19.7-.03.22-.12.3-.31.28-.22-.03-.46.06-.67-.08-.07.01-.13.03-.2.04,0,.08-.02.13-.09.16,0,.04-.02.07-.02.11q-.03.45.41.51c.22-.01.45-.06.66.04.05.5-.19.95-.14,1.43.05.17.1.36-.17.33-.36-.04-.73.05-1.09-.03-1.24.08-2.47-.07-3.71-.06-.04.03-.08.07-.12.1-.04.23-.08.45-.12.68-.03.39.16.76.1,1.15.02.17-.07.36.11.5.09.07.03.2,0,.31,0,.06,0,.11,0,.17.11,0,.21,0,.32,0,.03,0,.05-.02.08-.03,0,0,.02.02.03.04.16.14.11.33.09.51,0,.04,0,.08.01.11.04.03.09.06.13.09.15.09.06.16-.02.23v.04c.01.07,0,.14,0,.21,0,.04,0,.08,0,.12-.03.07-.07.15-.1.22.09.08.2.07.3.05.18-.03.31.05.4.2.23.17.2.42.19.66,0,.15-.03.3-.05.45.08.71.15,1.42.23,2.14.02.15.03.3.01.45-.02.21-.17.27-.34.27-.19,0-.33-.13-.29-.32.12-.51-.18-.99-.07-1.5.02-.09-.11-.22-.17-.33-.11-.06-.22-.12-.33-.18-.14,0-.29.01-.43.02-.09.03-.1-.02-.09-.1,0-.03,0-.06,0-.09-.03,0-.06,0-.09-.01-.07.16-.21.13-.33.15-.07.1-.14.08-.21,0-.32.06-.64-.05-.96.03,0,.09-.03.14-.11.17-.14.11-.29.09-.45.08-.17-.01-.18-.14-.18-.27,0-.02,0-.04-.01-.05-.03-.09.03-.26-.13-.24-.1.01-.06.16-.09.24,0,.04,0,.09,0,.13-.03.1-.06.21-.1.31.04.04.08.09.12.13.15-.02.27.07.4.14.34.17.41.38.18.71-.11.16-.27.22-.02.42.08.06-.01.35-.15.49-.27.56-.03,1.15-.11,1.72-.01.07,0,.15,0,.23,0,.08,0,.15,0,.23,0,.04,0,.08,0,.12.25,0,.25.2.19.35-.16.42.14.75.14,1.14,0,.17.18.14.3.14.33,0,.66-.04.99.05.24-.06.48-.01.72.02.43-.08.85-.04,1.28,0,.32-.04.64-.04.96,0,.11-.04.22-.04.33.02.1,0,.2.01.3.02.12-.04.23-.04.34.01,1.06.02,2.12.05,3.18.07.47-.05.93-.04,1.4.01.28,0,.57,0,.85.01.31-.05.61-.1.91.05.19-.04.38-.02.57.02.14-.09.32.02.48-.11-.05-.28-.11-.56-.15-.85-.01-.1.02-.2.14-.18.1.01.19.1.15.19-.11.25-.02.37.18.5.12.08.06.19-.07.23-.12.04-.32.01-.18.26,1.01.02,2.01.05,3.02.07.16.23.06.48.05.72.03.36.1.69-.16,1.04-.16.22-.12.61-.17.92.07.38.04.76.04,1.14h0c.13.04.09.14.07.23,0,.04.02.07.02.11q.03.59-.5.57c-.16,0-.32,0-.48,0,0,.04.01.07.02.11.09.02.28.04.14.17-.17.15-.12.12.01.24.15.13.09.63-.07,1.02.18.09.38.05.56.07.44,0,.44,0,.64.52.09.15.26.26.15.48.36.24.75.1,1.13.12.09,0,.18,0,.27,0,.16,0,.33.01.54.07-.21.16-.38.17-.54.16-.09-.01-.18-.03-.27-.04-.71-.06-1.43-.15-2.12.18-.04.02-.14.03-.14.02-.14-.39-.49-.12-.74-.25-.24-.12-.56-.19-.87-.17-.06,0-.12-.06-.19-.09-.12,0-.25-.03-.37-.02-.25.01-.38.16-.4.43-.02.28.04.62.22,1.01,0-.35,0-.61,0-.86,0-.07.01-.16.1-.18.09-.02.18-.01.22.09.08.23.18.41.14.72-.1.76.03,1.51.51,2.14.27.35.51.73.82,1.04.18.18.3.38.22.65-.07.24.01.44.08.66.05.16-.02.27-.18.26-.42-.03-.85.01-1.26-.12-.16-.18-.04-.36-.01-.55-.11-.01-.2,0-.23.15-.05.25-.16.5-.08.77.03.1-.08.2-.14.21-.09.02-.18-.11-.15-.18.21-.49-.14-.36-.35-.38-.04,0-.07,0-.11-.01-1.06.07-2.11-.02-3.17-.07-.08,0-.13-.06-.17-.12-1.33.05-2.66.01-4,0-.06.02-.11.04-.17.05-.16.03-.33.02-.49-.03-.38.05-.75-.02-1.13-.02-.05.04-.1.05-.15,0-.06.02-.13.04-.19,0-.15-.14-.16-.39-.35-.5-.03-.12-.07-.24-.04-.37-.04-.12-.06-.25-.13-.35-.05-.07-.13-.12-.26-.11-.03.03-.07.08-.1.11-.02.02-.03.03-.05.03-.03,0-.05-.02-.08-.03-.21-.07-.41-.14-.61-.22-.08,0-.15,0-.23,0-.02.07-.04.15-.06.22-.05.26-.08.52-.26.73,0,.35,0,.71,0,1.06,0,.05,0,.11,0,.16,0,.06,0,.12.01.19.02.19.04.38-.17.53-.07-.17-.07-.35-.06-.53,0-.06,0-.11,0-.17,0-.06,0-.12,0-.18,0-.44-.03-.89.1-1.32,0-.16.1-.31.14-.47.02-.1.02-.2-.03-.3-.07.02-.14.06-.2.04-.26-.08-.44-.07-.55.27-.07.22-.18.18-.3-.09-.09-.1-.2-.14-.21.04-.01.29-.14.36-.38.32-.27-.05-.38.29-.59.31-.19.02-.35-.24-.58-.14-.06.03-.11.09-.16.14-.02.43-.19.84-.16,1.28.07.17.08.35.07.53-.02.16.08.22.19.28.21.04.36-.1.52-.19.05.05.11.1.16.16.06,0,.12,0,.18,0,.12-.07.12-.16.06-.28-.09-.16-.28-.34.03-.48-.02-.25-.05-.5-.07-.73.11-.07.18,0,.27.02.23.02.3.16.25.39-.06.32,0,.64,0,.96,0,.14.04.26.15.34.11.03.19.11.32.12.18.01.15.15.07.28.01.2-.04.44.3.31.02,0,.03,0,.05-.01.22-.07.46-.09.69-.11.56-.05,1.11-.09,1.66-.14.02-.23-.17-.49-.05-.62.19-.19.35-.42.58-.54.09-.04.18-.07.29-.07.04,0,.07,0,.11,0,.79.07,1.59.07,2.39.09,1.6.04,3.2.05,4.78.35.04,0,.08.02.13.02.06,0,.13,0,.17-.07.17-.25.4-.17.62-.16.34.02.67.02,1.01.02.09,0,.16,0,.25-.06.28-.19.29-.19.3.14,0,.09.01.19.02.28.01.07.03.13.04.2.06,0,.12.02.18.02.01-.04.02-.09.03-.13,0-.44,0-.44.31-.45.3,0,.59,0,.89,0,.28,0,.26.17.22.37-.1.8-.11,1.61-.04,2.41.05.11.05.21,0,.32.03.13.07.26.09.39.02.19.07.29.27.2.03-.01.07-.01.1,0,.1.02.17.08.16.19-.01.11-.1.15-.2.14-.43-.07-.88.02-1.31-.1-.73.02-1.47-.02-2.2-.08-.12.11-.09.28-.15.41,0,0,0,.02,0,.02,0,.56-.04,1.11-.16,1.66,0,.06-.02.12-.03.17.02.21.09.42-.1.59,0,0-.01,0-.01,0-.11.07-.21.14-.32.21,0,0,0,0,0,0,0,.04-.02.07-.03.11.01.14.01.29,0,.43-.02.3-.08.59-.22.86-.11.09-.21.02-.32,0-.03.05-.06.11-.09.16,0,0,0,.03,0,.03.01.23.1.47-.09.67-.11.08-.16,0-.2-.08-.05-.13,0-.29-.1-.45-.09.25-.05.53-.33.69-.13.08-.13.4-.42.34-.11-.02-.11.12-.12.22-.02.19-.02.38-.04.57-.01.12-.05.27-.17.25-.32-.06-.62.14-.94.1-.26-.03-.53,0-.79,0,.3.08.6.09.9.08.3,0,.62.06.85.2.17.11-.05.45-.02.69.01.09-.02.19.05.27.03.01.07.03.1.03.38,0,.37,0,.28.38-.02.09-.01.18-.01.28,0,0,0,0,0,0,0,.42-.01.84-.02,1.26.22,0,.45,0,.67,0,.14-.04.27-.06.41,0,0,0,.02.01.02.02.18.12.35.2.26.56-.05.22-.1.5-.1.77,0,.19-.23.41.1.56.1.04.02.22-.11.23-.29.02-.55-.1-.81-.22-.05-.02-.09-.11-.06-.13.33-.2.08-.51.13-.75-.14-.03-.27-.06-.48-.1-.02.43-.03.86-.03,1.29,0,.17,0,.35,0,.52,0,.53,0,1.06,0,1.6h2.88c.08-.53,0-1.06.02-1.6,0-.03,0-.06,0-.08,0-.14,0-.29.01-.43,0-.12,0-.24,0-.36,0-.12.09-.2.22-.28.06.22.1.43.11.64.01.17.01.35,0,.52,0,.2-.02.39-.04.59-.03.35,0,.68.09,1.01h.11c0-.25-.04-.5.04-.72,0,0,0-.02,0-.03.1-.08.17-.02.24.03.03.02.07.04.1.04.22,0,.27.2.09.29-.21.1-.18.23-.16.4h3.3c-.02-.08,0-.17.06-.18.11-.02.14.09.15.18h5.97s.12-.08.06-.12c-.41-.23-.23-.57-.24-.98.41.35.57.76.83,1.1h.43c0-.07,0-.15,0-.22,0-.11-.03-.26.11-.26.14,0,.11.16.11.27,0,.08-.04.19.09.22.99,0,3.72.26,7.15.64-2.96-3.14-5.93-6.3-8.92-9.41-1.69-1.77-2.48-3.76-1.77-6.31,1.18-4.27,2.31-8.55,3.4-12.84.19-.76.49-.81,1.11-.81,2.18.02,4.38-.02,6.57-.05,2.27-.04,3.54-.94,3.87-3.14.15-.97-.25-2.08-.59-3.05-.28-.79-.48-1.3.34-1.88,1.11-.77,1.18-1.94.37-3.04.28-.46.67-.9.81-1.4.11-.43.09-1.24-.15-1.38-1.44-.88-.3-1.46.21-1.96ZM67.02,8.58c.07,0,.15,0,.16.09,0,.1-.03.18-.13.2-.1.01-.16-.06-.16-.16,0-.1.07-.11.14-.12Zm1.25,1.14c-.26,0-.53,0-.79,0,0,0,0-.02,0-.03-.32,0-.63,0-.95,0-.07,0-.14-.07-.14-.14,0-.08.07-.14.14-.14.6-.04,1.2-.05,1.79,0,.09,0,.17.07.15.19-.02.13-.12.12-.21.12Zm1.17-.7c-.3.02-.6.02-.9.02-.28,0-.54-.18-.83-.05-.11.04-.2-.07-.21-.2-.01-.15.08-.2.2-.2.26,0,.53,0,.91,0,.2.01.53-.05.84.04.08.02.18.05.18.17,0,.13-.08.22-.19.23Zm2.82,3.83c.03-.29.06-.59.04-.89.08.29.05.6.15.89,0,.02.01.04.02.06.03.08-.01.15-.1.14-.08,0-.13-.05-.12-.14,0-.02,0-.04,0-.06Zm.08,2.02c-.04-.15-.06-.3-.06-.45,0-.25-.04-.49-.07-.73-.01-.12-.04-.29.13-.32.19-.03.23.14.26.29.01.07,0,.15,0,.23-.05.31.11.6.08.91,0,.11,0,.18-.11.19-.01,0-.02,0-.04,0h-.04c-.07,0-.12-.04-.14-.12Zm.14,1.5c0-.27-.07-.54-.09-.83,0-.12,0-.24.01-.36.2.1.33.21.36.36,0,.05,0,.11,0,.18-.06.23.05.4.09.61.03.2-.09.29-.23.3-.16.01-.13-.15-.13-.25Zm.23,1.54c.04-.19.06-.37-.07-.54-.06-.08-.02-.19.08-.22.11-.04.22-.02.26.11.05.15.03.3,0,.45.01.08.03.15.03.23,0,.12-.01.25-.16.23-.13-.02-.18-.13-.15-.25Zm.51,1.54c-.14-.16-.26-.31-.33-.48-.05-.12-.08-.24-.08-.38,0-.1,0-.19.12-.21.11-.02.22,0,.23.15.01.14.04.28.06.43.02.15.03.3,0,.48Zm1.11-6.64c-.14-.21-.15-.4-.09-.59.01-.04.03-.09.05-.14.09-.21-.22-.43.04-.75.01.32.11.6.13.89.01.19-.01.39-.13.59Zm1.15,2.57c.05.01.1.05.09.1,0,.02,0,.04-.01.05-.02.05-.07.07-.13.06-.03,0-.05-.03-.06-.06,0-.02,0-.05,0-.07.01-.06.05-.09.1-.09Zm-.18,4.25c-.09.06-.17.03-.23-.05-.04-.06-.08-.13-.09-.2-.02-.12-.03-.24-.05-.37,0-.02,0-.04,0-.06-.02-.15-.04-.31-.06-.47.22.01.37.17.35.3-.02.25.06.44.14.64.02.07.02.15-.05.2Zm.14-2.16c-.02-.07-.05-.16-.06-.25,0-.09,0-.19.12-.2.09,0,.19.02.21.13.04.28.13.55.09.83-.02.16-.12.15-.23.08-.25-.14-.21-.36-.12-.6Zm.21,1.66c-.05-.19-.1-.36-.15-.53-.03-.11.02-.18.12-.19.11-.02.2,0,.2.16,0,.2.03.4-.17.57Zm.35.4c-.02.06-.07.07-.13.06-.05,0-.11-.05-.08-.1.03-.06.11-.08.16-.12.05.05.07.1.05.16Zm.15-4s-.03.03-.06.02c-.03,0-.05-.01-.07-.02-.05-.03-.06-.1-.06-.18,0-.08.04-.16.12-.14.11.03.07.16.1.23,0,.04-.01.07-.03.09Zm-.1-6.67c-.08,0-.13-.06-.12-.14.02-.1.09-.15.17-.14.1,0,.15.06.14.14-.01.1-.1.14-.19.14Zm.44,10.39c-.11-.23-.1-.4-.02-.58.11.16.12.33.02.58Zm.9-14.99c.19-.02.08.14.07.23-.02.13.2.26,0,.4,0,.1.14.18.13.28,0,.03-.02.07-.06.11-.03.03-.11.04-.14.02,0,0,0,0,0,0-.14-.14.05-.26.03-.4-.22-.05.01-.25-.1-.36-.08-.08-.05-.26.07-.27Zm.03,11.41c-.22.01-.26-.14-.26-.33,0-.1.05-.15.12-.14.17.02.27.15.34.29-.03.13-.1.17-.2.18Zm.56-2.83c0,.09-.01.18-.12.17-.1,0-.12-.09-.13-.17,0-.03,0-.06,0-.09,0-.1.01-.25.14-.25.14,0,.1.16.12.26,0,.02,0,.05,0,.08Zm2.53-2.02c0-.07.01-.15.11-.15.11.03.09.13.09.21,0,.09,0,.2-.12.17-.1-.03-.09-.14-.08-.23Zm-1.17,5.55c-.06-.31-.02-.64-.09-.96-.02-.11.05-.17.15-.18.11-.01.15.04.19.15.08.24.05.49.07.73,0,.08.02.15.03.23.02.14.08.34-.12.36-.18.02-.21-.19-.23-.33Zm.26.87s.14.03.14.04c-.03.29.14.57.07.9-.35-.22-.22-.6-.33-.87,0,0,.08-.07.13-.08Zm.36,2.29c-.08.01-.15-.02-.18-.09-.11-.24-.15-.5-.16-.81,0-.07-.04-.21.12-.22.13,0,.19.09.2.21.04.24.08.48.11.73,0,.07,0,.15-.1.17Zm.54-6.63c-.03-.43-.07-.86-.1-1.31,0-.08-.02-.19.1-.21.15-.02.14.09.15.22.02.41.05.82.09,1.23.01.11.09.23-.06.27-.14.03-.17-.09-.18-.21Zm.42,1.23c.02.26.05.53-.09.78-.25-.47-.02-.98-.26-1.54.46.2.32.52.34.76Zm-.11,1.64c-.17-.03-.12-.19-.09-.31.02-.09.04-.18.17-.17.11.05.14.15.12.27-.02.12-.08.23-.2.21Zm1.05-13.06c.18-.15.14-.41.29-.65.07.3,0,.52-.04.74-.04.18-.16.2-.27.12-.09-.06-.06-.16.02-.22Zm.14,1.31c-.08-.02-.12-.08-.1-.16,0-.06.05-.09.11-.08.08.02.11.08.1.16,0,.06-.05.09-.11.08Zm.23,3.4s-.11-.02-.12-.05c-.02-.07,0-.14.08-.15.06-.01.09.04.11.09.02.06-.02.11-.07.12Zm.11-.59c-.03.08-.1.08-.17.05-.05-.02-.1-.05-.09-.11.01-.08.06-.13.16-.08.04.03.13.05.1.14Zm.49-2.77c0,.06-.05.1-.1.1-.06,0-.09-.04-.1-.1.01-.06.05-.09.11-.09.06,0,.1.03.1.09Zm-.16-1.3s.08.03.1.05c.05.05.03.1-.01.14-.04.04-.1.05-.13.1-.07-.11-.14-.22.03-.29Zm-.04.41c.05.11.2.24-.02.24-.17,0-.03-.12.02-.24Zm0,1.7c0-.08.01-.14.09-.16.03,0,.05,0,.07.02.03.02.05.07.05.11,0,.03-.02.07-.05.1,0,0-.02.02-.03.02-.07.03-.12-.01-.14-.1Zm.23,1.73s-.05.02-.07.02c-.02,0-.04-.03-.05-.06-.02-.06,0-.11.05-.15.01,0,.02-.02.04-.02.06-.02.1.02.1.08,0,.05-.04.1-.07.13Zm1.38.29c-.05.01-.12-.04-.09-.09.06-.12.04-.3.19-.35.08,0,.1.05.1.11-.01.15-.04.29-.2.33Zm.64-2.78c.02-.06.07-.09.12-.05.02.02.03.06.04.1-.03.05-.07.08-.13.05-.04-.02-.05-.06-.03-.1Zm.13,11.75c-.21-.17-.02-.37-.08-.56.23.16.12.36.08.56Zm.71-6.6c-.05.02-.11,0-.13-.06-.02-.08.01-.14.11-.16.03.02.1.03.11.07.04.09-.03.13-.09.15Zm.05-3.21c.12.19,0,.43.17.59.05.05.06.15-.02.19-.11.05-.24.03-.27-.09-.07-.24-.08-.49.12-.69Zm.28,13.17c-.06.01-.14.03-.15-.07,0-.05.04-.1.1-.11.05,0,.1,0,.12.06.02.06-.02.11-.07.12Zm-.16-14.51c-.11-.03-.15-.07-.16-.23,0-.3-.03-.6-.06-.9-.02-.2-.04-.41-.05-.61,0-.1-.01-.19-.01-.29-.01-.3-.01-.61-.05-.91-.03-.23.09-.27.23-.28.14,0,.35-.07.38.19.07.83.16,1.67.16,2.48,0,.08-.01.14-.01.2,0,.36-.1.45-.43.36Zm.46,4.8c-.07,0-.13-.05-.12-.15.02-.12,0-.29.18-.27.09,0,.18.05.17.17-.02.14-.09.26-.24.25Zm.84,7.07c-.11-.39-.49-.76-.05-1.24.16.44.05.84.05,1.24Zm.46.1c-.1.01-.09-.08-.11-.15.03-.08,0-.21.12-.2.08,0,.07.11.08.18,0,.08,0,.16-.09.17Zm.26-11.42c-.22.02-.15-.21-.23-.28-.03-.14.04-.19.14-.19.16-.01.27.05.26.25,0,.12-.02.21-.17.23Zm-24.76,20.73c-.07,0-.12-.06-.13-.14,0-.07,0-.15.09-.16.11,0,.14.08.16.17,0,.09-.05.14-.12.14Zm5.01,5.59s-.05-.05-.03-.11c.01-.05.02-.12.09-.09.05.02.1.05.08.12-.01.05-.03.11-.14.08Zm.2-4.9c-.03-.1-.01-.19.08-.24.08-.04.17-.04.25.01.07.05.07.13.04.2-.04.11-.1.22-.15.34-.12-.08-.17-.19-.22-.31Zm.24.55c.08,0,.11.07.11.15-.02.09-.02.2-.12.21-.11,0-.13-.09-.13-.19,0-.11.04-.17.15-.17Zm.26,3.92c-.06.06-.13.03-.18-.02-.24-.26-.28-.83-.08-1.23-.03-.03-.04-.06-.03-.1,0-.02-.03-.03-.03-.05-.01-.16-.06-.39.16-.38.19,0,.17.22.16.4-.02.38.05.76-.11,1.13-.02.05,0,.1.06.14.03.02.12.05.05.12Zm.64.1c-.17.04-.27-.05-.28-.24-.01-.21,0-.42,0-.52-.01-.26-.01-.41-.03-.56-.01-.12.04-.18.14-.19.11,0,.22,0,.21.16,0,.24.12.48.02.72-.04.1-.07.21.02.32.09.12.11.26-.07.3Zm.03-6.41c-.01.12-.09.14-.18.15-.09.01-.12-.06-.12-.13,0-.12.08-.14.17-.15.08,0,.12.04.13.13Zm-.05-.77s.08.03.09.09c0,.03-.02.07-.04.08-.05.03-.09,0-.11-.05-.02-.05,0-.1.06-.12Zm.75,7.46c-.24-.22-.32-.47-.29-.81.02-.21.07-.45-.08-.66-.03-.05-.02-.16.05-.2.09-.05.16,0,.23.08.15.15.13.36.11.54-.04.25-.08.47.1.69.08.1.03.26-.12.37Zm.71-.51c-.06.02-.09-.04-.1-.1,0-.06,0-.12.06-.14.07-.02.08.04.1.1,0,.06,0,.12-.05.14Zm1.73-5.33c-.02-.1.06-.12.12-.14.09.01.18.02.21.13.03.11-.06.12-.12.13-.09.01-.18,0-.2-.12Zm.31.51c-.08.01-.13-.03-.13-.12,0-.06.06-.08.11-.08.06,0,.1.02.1.09,0,.06-.03.1-.09.11Zm.08-1.26s-.04.03-.06.03c-.04,0-.07,0-.1-.03-.02-.02-.04-.05-.04-.09,0-.1.06-.16.15-.18.08.02.11.08.11.16,0,.05-.02.09-.06.12Zm1.06,3.51s.01-.12.07-.11c.08.02.16.06.16.17,0,.05-.02.1-.1.11-.08-.01-.13-.07-.13-.17Zm.45,3.47c-.04.07-.11.11-.18.09-.1-.03-.13-.13-.1-.23.02-.09-.06-.18,0-.26.13-.04.19.07.26.14.08.08.06.17.01.26Zm-.22-7.88s.02-.01.03-.02c0,.01.02.02.02.04,0,.04-.02.05-.05.03,0,0,0-.03,0-.04Zm.72,3.14s0,.03,0,.04c-.01-.01-.03-.03-.04-.04-.09-.12-.06-.26-.03-.41.29.09.12.26.08.41Zm.02.27s-.08.01-.09,0c-.05-.09-.02-.15.05-.2.08.05.11.12.03.2Zm-.09.3c.23.21.2.44.14.68-.01.08-.06.13-.13.12-.02,0-.03-.08-.05-.12-.03-.21-.04-.43.03-.67Zm0,1c.14.01.13.15.11.27-.02.14.03.25.08.38.1.24.02.43-.32.49.15-.33-.12-.56-.06-.85.03-.12.01-.3.19-.28Zm.11,2.41c-.2.02-.15-.16-.18-.27-.04-.18.05-.37-.07-.55-.04-.06-.04-.16.04-.2.1-.05.14.05.21.11.18.17.13.42.2.62,0,.16-.06.27-.2.29Zm1.56-.21c-.02.08.01.2-.11.22-.1.01-.17-.03-.22-.12-.08-.15-.08-.33-.1-.49,0-.12,0-.24.03-.35.02-.11.13-.12.21-.11.09,0,.23.07.18.15-.13.25.07.47,0,.71Zm.21-2.56c-.01-.22.02-.45.03-.67-.04-.07-.05-.14-.02-.21.02-.11.06-.22.06-.32,0-.06,0-.12-.04-.18-.04-.08-.08-.18-.03-.27.06-.11.11-.26.26-.23.17.03.13.21.14.31,0,.14-.1.24-.15.37-.02.06-.03.11-.01.18.14.24.22.49.16.78.04.15.06.3-.1.39-.16.09-.28.05-.29-.15Zm.27,1.02c-.24-.02-.15-.29-.22-.45-.04-.11.02-.18.13-.18.22-.01.25.15.25.34,0,.13.01.31-.15.3Zm.32-5.89c-.02.06-.04.13-.05.2-.03.15-.04.31.01.51-.27-.15-.2-.36-.23-.51,0-.04-.02-.07-.04-.1-.45.01-.9-.03-1.35-.03-.41,0-.82.03-1.22.17-.08.03-.13-.01-.19-.05-.34-.19-.72-.04-1.08-.14-.05-.01-.13.11-.2.17,0,.06.02.12,0,.17-.04.14-.08.35-.24.29-.17-.07-.02-.26-.01-.39-.05-.14-.1-.27-.3-.24-.42.08-.85.09-1.27-.01-.27-.07-.27.24-.44.41-.09-.38-.27-.45-.59-.38-.32.07-.66.04-1-.02-.32-.06-.66-.04-.98.02-.34.06-.66-.08-.99-.02-.09.02-.19-.07-.28-.11,0-.22.14-.19.23-.19,1.28,0,2.56,0,3.83,0,.46,0,.92-.02,1.38,0,.71.02,1.42.1,2.12.07.08,0,.16,0,.24-.01.61-.05,1.21.1,1.82-.03.2-.05.4.14.62.09.1,0,.25,0,.2.16Zm.4,6c-.07-.02-.1-.09-.11-.17.02-.03.04-.07.05-.07.06.02.13.06.13.14,0,.06-.01.12-.08.1Zm.19-5.93c-.07,0-.15,0-.17-.08-.03-.13.09-.13.14-.16.09-.01.17,0,.18.08.02.13-.07.15-.16.16Zm-1.38,26.28c-.08-.02-.12-.07-.1-.16,0-.02.05-.05.08-.05.07,0,.13.04.14.13-.02.07-.07.09-.12.08Zm.72-6.34c-.11.06-.23.08-.33-.03-.01-.01,0-.08.03-.1.15-.14.24-.02.34.06-.03.04-.03.06-.05.07Zm6.72-6.49c0,.06-.02.11-.08.13-.09.03-.12-.04-.17-.1-.06-.08-.09-.17-.06-.27.07-.22.13-.44.16-.67.14.29.16.6.13.91Zm-.23-14.64c.09,0,.1.09.09.16,0,.06-.04.11-.09.11-.08,0-.12-.05-.12-.14.01-.08.05-.15.13-.14Zm-.55,3.87c.05-.02.1-.01.12.05,0,.02-.02.08-.04.09-.05.03-.09,0-.12-.05-.02-.04,0-.08.04-.09Zm-.47,2.07c.22-.02.16.19.19.32.03.19-.04.37-.23.35-.17-.02-.07-.21-.08-.32-.02-.14-.1-.32.13-.34Zm.04,1.08c.22.03.22.24.24.43.02.16-.07.2-.18.19-.23-.02-.16-.25-.23-.33,0-.17.06-.3.17-.29Zm.05.79c.12.02.19.09.17.19-.01.12-.09.22-.21.2-.09-.01-.17-.08-.17-.19,0-.14.12-.17.21-.21Zm.08.79c.08-.02.15.03.15.11,0,.06-.06.12-.1.18-.06-.05-.12-.08-.15-.14-.04-.09.03-.14.1-.16Zm0-2.94c0,.09-.13.12-.22.12-.13,0-.13-.1-.1-.2.06-.17-.1-.32-.01-.54.14.08.3-.03.47.02.03.24-.12.4-.14.6Zm-.09-1.62c-.16.03-.21-.11-.26-.22-.03-.06.01-.11.07-.13.01,0,.03-.01.04-.01.02,0,.03.01.05.01.1.02.2.03.2.19,0,.08-.03.15-.11.16Zm-.11-2.72s.06-.09.06-.09c.12-.04.15,0,.18.05.06.11.02.18-.03.26-.02.03-.04.06-.06.09,0-.03-.03-.06-.06-.09-.06-.06-.15-.11-.1-.22Zm0,1.09c.09,0,.2.04.2.14,0,.14-.15.13-.24.15-.07.01-.13-.04-.14-.13.02-.1.09-.16.18-.16Zm-.02,2.1c.14-.01.18.08.19.2,0,.03,0,.06-.02.08-.02.04-.06.05-.11.04-.05-.01-.11-.02-.16-.04-.04-.02-.07-.05-.08-.11-.01-.1.08-.15.18-.16Zm-1.42-2.97c.02-.05.04-.11.04-.15.01-.09-.03-.19-.02-.28.02-.11.1-.15.2-.12.12.03.13.11.07.2-.04.07-.05.14-.04.24,0,.03,0,.07,0,.11,0,.16.03.35-.14.33-.22-.02-.17-.18-.12-.33Zm0,.87c.09,0,.18.05.16.17-.02.1-.11.15-.2.15-.08,0-.12-.07-.13-.16,0-.1.06-.17.17-.16Zm-.15.84c.04-.06.1-.1.17-.08.06.04.03.09,0,.13,0,.01-.01.02-.02.03-.03.05-.07.1-.13.08-.04-.01-.06-.05-.06-.08,0-.03,0-.06.03-.09Zm0,1.67c.06,0,.1.01.13.06.27.48.25.79-.13,1.34-.09-.49.02-.9-.08-1.29-.01-.05.01-.11.08-.12Zm-.03,1.98c.03-.15.04-.25,0-.37-.04-.1.05-.17.15-.17.1,0,.16.03.17.15.03.28-.04.54-.06.81,0,.05-.06.09-.12.08-.06,0-.09-.05-.11-.11-.04-.15.07-.3-.03-.41Zm-.79,13.92c.11.1.35.04.3.3-.02.1-.15.11-.23.08-.21-.07-.09-.23-.07-.38Zm-1.09-18.43c.06,0,.08.06.08.13-.02.09-.06.17-.16.16-.06,0-.09-.06-.08-.12.01-.1.05-.18.16-.16Zm-.08.73s.01,0,.02,0c.06.03.09.07.08.13,0,.04-.02.08-.04.11-.02.04-.06.06-.12.05-.05,0-.1-.04-.07-.11.03-.07.05-.16.13-.18Zm0,1.42s.1.05.11.09c.02.08,0,.13-.06.17-.02.01-.04.03-.07.03-.02,0-.05-.01-.08-.03-.02-.01-.04-.03-.04-.05-.04-.12.06-.15.14-.21Zm-.54-3.33c-.06,0-.15-.01-.13-.12.02-.08.08-.1.14-.09.07,0,.11.03.12.09,0,.1-.07.12-.13.12Zm.41,5.18c-.01-.22-.03-.44-.04-.66,0-.15.06-.25.25-.28.02.32-.14.62-.08.93,0,.04.02.07.03.11,0,.35.18.71-.04,1.08-.3-.32-.15-.66-.13-.99-.05-.07-.05-.14.01-.21Zm.3,3.09c-.02.09,0,.21-.13.19-.13-.02-.07-.14-.08-.22-.03-.28.03-.56-.02-.84-.04-.18.04-.32.31-.43-.07.47.03.89-.07,1.3Zm.01-8.25c-.08.02-.13,0-.15-.1,0-.12.07-.16.17-.15.05,0,.12.04.13.07.02.11-.06.16-.15.18Zm.32,4.57c.08-.04.17-.03.25.02.07.05.05.12.02.2-.04.1-.07.2-.14.39-.08-.17-.13-.27-.17-.36-.04-.09-.05-.19.04-.24Zm.32,3.14s-.08.09-.13.04c-.05-.05-.1-.12-.03-.19.02-.03.04-.05.05-.08.01.03.05.05.08.06.09.04.09.11.04.18Zm-.03-.54c0,.08-.06.16-.09.24-.08-.08-.16-.16-.13-.29.03-.16.02-.34.15-.47.01-.01.07,0,.09.03.13.16,0,.32-.02.48Zm-.07-5.75c-.08.01-.12-.05-.13-.14,0-.09.02-.19.12-.22.11-.02.15.07.16.16.01.12-.06.18-.15.19Zm.15-1.37c-.09,0-.15-.07-.16-.18.04-.13.11-.23.25-.2.08.01.12.08.1.16-.03.11-.08.22-.2.22Zm.31,21.16c-.01.05-.06.11-.12.08-.1-.04-.09-.15-.07-.24,0-.05.04-.11.03-.11.19.08.17.18.15.27Zm-.13-.69c-.03-.1.05-.11.11-.13.07,0,.14,0,.15.08,0,.06-.03.1-.09.11-.07,0-.15,0-.18-.07Zm.6,3.27c-.04.13.09.46-.21.42-.23-.03-.13-.3-.12-.48,0-.06.03-.11.04-.16,0-.13.04-.22.18-.2.12.02.1.13.11.22,0,.06,0,.11,0,.21Zm1.24.28c-.02.12-.12.21-.23.17-.11-.04-.1-.18-.07-.29.03-.1.05-.23.19-.21.14.07.11.22.1.34Zm.42-12.85c.01.07-.03.16-.11.17-.11.01-.16-.06-.17-.17-.01-.09-.01-.19-.02-.3.04-.24.08-.5.11-.76.02-.12.08-.15.18-.14.1.01.17.05.17.17,0,.11.01.24-.03.34-.1.23-.17.45-.13.7Zm-.12.96c-.17-.2-.19-.38-.06-.56.01-.02.08-.02.09,0,.13.2.03.37-.03.57Zm-.21,2.93s-.04.06-.06.1c.01.05.03.1.04.15.01.07.03.15-.06.17-.1.02-.08-.08-.09-.14,0-.05,0-.11,0-.16-.02-.05-.06-.1-.06-.15,0-.18-.11-.38.08-.51.02-.01.07,0,.09.02.14.16.11.34.05.53Zm-.09,1.1c0-.15-.11-.28-.04-.44.13.11.34.11.37.33.02.13.03.28-.14.31-.14.03-.19-.07-.19-.2Zm.23,5.38c0-.09.06-.12.14-.12.07.02.13.07.14.14,0,.12-.09.14-.18.13-.09,0-.1-.08-.09-.15Zm.17.79c.17-.04.24.11.25.27,0,.13-.02.26-.19.37-.04-.15-.08-.25-.1-.35-.02-.1-.09-.25.04-.28Zm.14,1.73c-.12-.01-.19-.08-.18-.22,0-.1.05-.17.15-.18.14.03.21.13.21.28,0,.13-.1.13-.18.12Zm.29-14.64c-.28.12-.3.12-.55-.02-.03-.02-.1.02-.15.04-.11.17-.21.33-.23.55-.05.47-.06.47-.46.57.26.12.42.3.35.63-.02.19-.04.37-.06.6-.23-.13-.08-.34-.14-.48-.17.03-.06.28-.22.32.08.38-.07.74-.08,1.11,0,.18-.07.29-.26.25-.14-.03-.27.01-.41-.04-.2-.08-.34-.12-.02-.25.12-.05.09-.24.05-.3-.28-.44-.13-.93-.18-1.4-.01-.09-.01-.19-.02-.28.05-.32-.03-.62-.1-.93,0,0,0-.01,0-.01-.04-.15-.15-.31.01-.46.59-.16,1.19-.07,1.78-.07.31.09.57-.17.87-.12.1-.02.2-.05.3-.05.46,0,.46,0,.43.52-.02.28.08.55,0,.83.21.21-.08.36-.05.56,0,.07-.03.04-.04-.03-.02-.19-.24-.37-.01-.56-.13-.19-.21-.37-.11-.61.04-.09.09-.24-.02-.31-.11-.07-.15.07-.23.14-.19.17-.27.04-.28-.17-.05,0-.11-.04-.15-.02Zm.16,4.58c.04-.63-.12-1.29.22-1.88.01-.02.06-.02.11-.03.07.6-.1,1.2.04,1.79.03.13-.05.26-.2.28-.11.02-.19-.07-.18-.16Zm.17.63c.04-.06.12-.12.18-.08.18.14.07.32.03.53-.25-.12-.33-.24-.21-.45Zm.52,3.94c.02-.16.04-.31.23-.32.08,0,.18-.02.23.08.07.15-.06.13-.13.17-.13.07-.03.16-.01.24.12.56,0,1.11-.06,1.66-.01.11-.06.18-.16.17-.12-.01-.25.04-.37-.09.16-.62.18-1.27.27-1.92Zm-.26,2.68c0-.16.04-.31.21-.35.19-.04.25.08.27.25.02.15.08.3.08.44,0,.11.11.28-.09.32-.19.04-.35,0-.42-.23-.04-.15.05-.3-.05-.44Zm.14,1.44c.02-.11-.03-.18-.04-.27,0-.17.07-.3.22-.33.16-.02.26.1.29.26.02.11,0,.22,0,.34.02.18.08.41-.19.41-.24,0-.34-.17-.29-.41Zm.09,1.03c-.09-.26,0-.42.24-.42.19,0,.28.16.22.38,0,.03,0,.07,0,.11,0,.19.12.45-.19.47-.26.01-.29-.2-.26-.43,0-.04,0-.08,0-.11Zm.07,1.44c-.01-.09,0-.19,0-.26-.03-.11-.04-.21,0-.29.08-.16.21-.19.36-.14.09.03.27.72.21.79-.08.1-.13.23-.29.21-.16-.03-.25-.13-.28-.3Zm.1,1.08c0-.05.02-.11.04-.15-.03-.1-.07-.19-.04-.28.04-.14.13-.22.27-.21.13,0,.18.09.18.22,0,.15.02.3,0,.45-.02.13.04.34-.18.32-.18-.02-.28-.15-.27-.35Zm.49,1.46c-.09.07-.19.03-.28-.02l-.03.02v-.04q-.14-.59.19-.93c.13.24.07.48.05.71.03.02.05.05.04.08.07.05.1.13.03.18Zm2.16-17.64c0,.05-.03.13-.05.14-.08.02-.12-.04-.13-.13.01-.07.01-.15.11-.14.05,0,.08.07.07.12Zm-.19-4.5s-.01.07-.03.13c-.1,0-.12-.05-.14-.1-.03-.11-.14-.29.03-.32.18-.03.09.2.14.3Zm-.1-3.54s0-.12.09-.08c.06.04.1.1.09.18-.01.06-.05.1-.11.08-.08-.03-.08-.1-.07-.17Zm-.06,4.03s.1-.08.13-.01c.08.14.16.29,0,.43-.03-.02-.07-.04-.08-.06-.03-.11-.16-.22-.05-.35Zm.15-4.85c.06.02.1.06.09.12-.02.12-.09.2-.21.21-.09,0-.12-.06-.1-.15.03-.12.1-.19.22-.18Zm-.18,3.3s.09.04.07.12c-.02.08-.07.12-.14.11-.04,0-.08-.05-.07-.12.02-.09.07-.1.14-.11Zm-.02,13.81c0,.21-.31.14-.29.36.01.15.1.27.19.39.06.07.02.18-.02.27-.05.09-.12.09-.2.06-.23-.31-.08-.64-.04-.96.03-.2.2-.23.37-.11Zm-1.41-16.18s-.05-.08-.04-.13c.01-.07.05-.13.13-.1.02,0,.03.06.03.09,0,.07-.04.14-.12.15Zm.4,9.77c-.16-.21-.12-.37.11-.48,0,0-.11-.04-.18-.07-.2-.45-.19-.5.12-.49.1,0,.24-.04.27.1.03.13-.02.26-.15.32.16.02.2.16.19.29-.03.66.08,1.32.12,1.97.01.17.09.33-.05.48-.09.1-.02.16.05.22.11.1.14.23.03.34-.11.12-.26.14-.39.07-.11-.06-.09-.2-.07-.31.07-.42-.11-.82-.08-1.24.02-.4-.17-.81.04-1.21Zm.08,3.8c.06.21.12.36.16.52.02.07,0,.15-.07.18-.08.02-.15-.03-.17-.1-.06-.18-.08-.36.09-.6Zm-.04,9.62c-.04-.18.04-.38-.07-.54,0-.12.02-.24.12-.3.1-.06.23-.06.24.08.02.24.01.48.06.72.02.1-.02.19-.13.21-.11.02-.21-.03-.23-.17Zm.48,3.58c-.07,0-.13-.02-.15-.1-.03-.08.03-.1.07-.12.07-.03.15,0,.17.07.03.07-.01.14-.1.15Zm.17-6.97c-.05,0-.1-.02-.11-.08,0-.06.02-.1.08-.11.07,0,.14.02.14.11,0,.06-.06.07-.11.07Zm.1,3.41c.01-.06.05-.09.1-.08.05.01.1.03.08.1-.01.05-.04.1-.1.08-.05-.02-.09-.05-.08-.11Zm.14,1.43q.14.37-.02.8c-.03-.27-.06-.48.02-.8Zm.15,2.14c-.1,0-.17-.07-.15-.17.01-.06.11-.08.18-.06.06.02.14.03.13.12-.03.09-.09.1-.16.1Zm.49-17.51c-.07.27-.02.56-.21.81-.14.18.16.27.11.45-.03.1-.04.19-.16.19-.12,0-.13-.1-.14-.24.21-.16.03-.35.01-.55-.02-.22.03-.45.06-.67.02-.14,0-.35.21-.32.19.03.16.18.11.35Zm1.24-1.96c-.04.2-.09.4-.19.58,0-.23-.22-.41-.09-.65.05-.08.1-.16.21-.12.08.03.09.11.07.19Zm-.16,3.85s-.06.06-.11.05c-.05-.02-.07-.07-.04-.12.01-.02.05-.05.08-.04.05,0,.09.03.08.12Zm.12-5.08c0,.07-.05.09-.1.09-.05,0-.1-.03-.07-.1.01-.03.04-.06.07-.07.07-.02.09.03.1.09Zm-.23-3.69c.03.06.07.12.1.18.05.13,0,.24-.12.24-.09,0-.11-.13-.08-.23.02-.07.01-.15.11-.19Zm-.3-.57c.02-.08,0-.2.12-.18.08,0,.08.1.08.17,0,.07-.02.15-.1.16-.1.01-.09-.08-.1-.15Zm.2,8.28c-.08,0-.08-.1-.09-.18.02-.1-.03-.27.15-.28.09,0,.11.09.1.16-.02.11,0,.28-.16.29Zm.16,10.88c-.12-.13-.13-.3-.12-.35,0-.2-.01-.28,0-.35.02-.09.04-.2.15-.18.08.01.12.1.1.17-.05.22.02.41.09.6.02.05.02.12-.04.15-.07.04-.13.02-.19-.04Zm.18,1.21c-.06,0-.08-.06-.07-.12,0-.02.05-.03.08-.05.06.02.09.06.07.12,0,.02-.06.05-.08.05Zm1.33-29.66c-.08.1-.01.17.02.25.11.24.04.48.04.73,0,.11-.11.13-.2.06-.11-.09-.1-.22-.1-.34,0-.07,0-.15-.01-.22-.01-.04-.03-.08-.04-.12v-.12s.03-.05.05-.08c.19-.1.2-.13.13-.16-.08-.03-.14-.07-.18-.13-.03-.04-.05-.08-.05-.15,0-.28-.07-.57,0-.85.01-.05.03-.07.05-.09.04-.03.1,0,.15.02.11.07.2.17.2.31-.02.29.15.6-.06.87Zm-.11,35.21c-.09-.07-.15-.13-.18-.19-.04-.08-.04-.16,0-.24.03-.06.07-.12.12-.18.1.19.01.36.06.62Zm-.18.54s.07-.05.13-.03c.07.01.12.07.11.16,0,.08-.05.15-.13.15-.04,0-.08-.01-.11-.04-.03-.03-.05-.07-.05-.13.01-.04.03-.08.05-.1Zm.14-7.32c.01-.34-.17-.53,0-.86.14.31.24.52,0,.86Zm-.1-12.95s-.02.07-.04.09c-.03.03-.06.05-.1.05-.08,0-.12-.08-.11-.16.04-.24.08-.48.13-.72,0-.04.04-.06.08-.07.04,0,.08,0,.14.01-.14.25-.04.53-.1.8Zm0,.76s-.03.06-.05.09c-.02.03-.06.05-.1.04-.09-.02-.07-.12-.06-.18,0-.09.05-.14.14-.11,0,0,.01,0,.02.01.06.03.07.09.05.16Zm-.23-28.88c.09-.02.12.04.12.12,0,.06-.04.1-.1.09-.05,0-.1-.03-.1-.13,0-.03.03-.07.08-.08Zm-.21,9.05c.03-.1.23-.1.39-.05.09.03.16.07.19.13.07.13.1.28.02.42.02.42.05.83.07,1.25,0,.18-.06.3-.25.27-.01,0-.03,0-.04,0-.13-.03-.14-.13-.11-.28.09-.41-.07-.82-.05-1.24-.31-.04-.29-.29-.24-.5Zm.14,20.91c.04-.11.12-.13.21-.11.02,0,.03,0,.04.02.06.03.09.09.06.14-.01.03-.04.05-.06.06-.05.02-.11.02-.17,0-.05-.01-.1-.04-.08-.11Zm.14.8c0-.06.03-.11.1-.1,0,0,0,0,.01,0,.04.03.06.08.05.13,0,.03-.03.05-.05.06-.02,0-.05,0-.07,0-.02-.01-.04-.06-.04-.09Zm.06,18.25c0-.06,0-.12.06-.14.02,0,.03-.01.05-.01.03,0,.09.04.09.05-.03.43.25.87-.05,1.35-.05-.17-.08-.34-.1-.5-.03-.26-.03-.51-.06-.75Zm.22,1.92c-.06.01-.1-.03-.11-.09-.01-.1.05-.13.13-.13.08.02.13.08.11.16,0,.03-.08.06-.13.07Zm.17-28.87c-.06,0-.09-.04-.11-.1-.02-.1.04-.17.08-.27.04.09.13.14.14.23.02.1-.04.13-.11.14Zm-7,49.68c-.05.21.04.52-.27.61-.18-.18-.24-.41-.19-.66.03-.16.14-.26.3-.25.17.02.18.2.16.3Zm1.32.14c-.06-.02-.07-.11-.05-.19.02-.08.05-.13.13-.13.08.03.11.09.1.17-.02.1-.08.18-.17.15Zm1.58,5.64c.19.31.19.5.04.68-.15-.17-.04-.37-.04-.68Zm-.01-.42c-.02-.05,0-.1.06-.13.06,0,.1.03.1.09,0,.03-.02.07-.04.09-.05.03-.1.02-.12-.04Zm-1.23-8.2c-.07-.31-.03-.61.1-.91.13.32.07.62-.1.91Zm.27-1.49c-.02.08-.08.14-.14.09-.08-.05-.07-.16-.06-.25.01-.08.06-.13.14-.13.1.07.09.18.06.29Zm0-1.83c0-.07,0-.16.1-.16.06,0,.09.05.09.11,0,.08-.02.15-.11.16-.06,0-.09-.05-.09-.11Zm.34,11.92c-.05.18-.15.35-.14.57-.07-.19-.04-.38-.09-.56-.03-.1,0-.25.14-.23.1.01.11.15.09.23Zm.69,1.83c-.11.02-.11-.08-.11-.15,0-.07,0-.17.04-.22.02-.02.05-.03.09-.03.03,0,.04.01.06.03.03.04.03.1.04.16,0,.08,0,.18-.12.21Zm.12-8.86s-.05-.02-.06-.03c-.11-.19-.12-.39,0-.57.02-.03.13-.02.14,0,.09.22.09.43-.08.61Zm.31,8.76s-.02.03-.04.07c-.03-.07-.04-.08-.04-.1-.01-.08-.06-.17-.03-.24,0-.02.02-.04.04-.06.01-.01.07,0,.08.01,0,.02.01.03.02.05.02.09-.04.18-.04.27Zm-.04-.97c-.14-.18-.12-.39,0-.6q.13.33,0,.6Zm.04-1.07c-.09.02-.13-.04-.12-.13,0-.06.04-.11.1-.11.06,0,.09.05.1.11,0,.06-.02.12-.08.13Zm.18-4.93s.06-.03.09-.02c.03,0,.07.05.07.06-.05.28.12.6-.18.88-.23-.35-.03-.64.02-.93Zm.18,7.03c-.14.01-.13-.14-.13-.25,0-.03,0-.06.02-.08.02-.06.07-.09.16-.09.05,0,.08.04.09.09,0,.02,0,.04,0,.06-.02.11-.03.26-.14.27Zm.06-7.94s.02.07.02.11c0,.15.05.31-.12.4-.03.01-.08,0-.1-.02-.15-.15.04-.27.02-.41-.13-.58.12-1.09.21-1.64.17.53.02,1.04-.04,1.56Zm.72.07c-.02.05-.12.04-.13,0-.09-.32-.06-.62.11-.91-.16-.31-.03-.58.1-.86.06.29.24.59-.05.87.16.31.08.61-.04.91Zm.16-8.84c-.09,0-.1-.08-.09-.15,0-.05.01-.1.08-.11.08.02.1.08.1.16,0,.06-.03.1-.09.1Zm.05-.61s-.12-.14-.12-.22c0-.09.1-.14.19-.14.08.01.13.07.12.15-.01.12-.09.22-.19.21Zm.38-4.33c-.08-.02-.13-.12-.12-.23.01-.06,0-.16.09-.14.09.02.12.13.13.22.01.08-.05.17-.11.16Zm.68,21.79c-.09-.15-.09-.27.02-.44.09.17.07.29-.02.44Zm.12-1.47c0,.1,0,.25-.15.21-.09-.02-.11-.13-.08-.23.03-.08.02-.19.12-.25.12.08.11.18.11.27Zm-.02-.49c-.05.06-.14.04-.19-.01-.14-.16,0-.26.11-.45.07.2.2.32.08.47Zm1.13.3c.13.29.06.5.03.72-.13-.21-.24-.42-.03-.72Zm.04,1.69c-.15-.17-.16-.3-.07-.43.01-.02.08-.03.09-.02.08.14.04.27-.02.45Zm4.36-6.88q.19.19.13.76-.18-.34-.13-.76Zm-1.89,4.71c.24.75.12,1.45.04,2.23-.25-.76-.27-1.78-.04-2.23Zm-.42.1c.03.21.1.42,0,.62q-.09-.28,0-.62Zm-.04,1.26c.03.21.26.39.08.61,0,0-.04,0-.05,0-.19-.19-.02-.41-.03-.6Zm1.26-33.45s.06.05.06.07c0,.07-.05.1-.11.07-.02,0-.04-.07-.03-.09,0-.02.05-.03.08-.05Zm-1.23-21.68c.17,0,.25.04.28.14.04.12-.08.1-.13.11-.1.02-.17-.03-.18-.15,0-.06.04-.1.03-.1Zm-.57-3.18c.09.02.15.06.13.14,0,.03-.08.05-.13.06-.08,0-.13-.05-.1-.13,0-.03.08-.05.1-.06Zm-.21,8.47c.02-.05.07-.08.11-.05.02.01.03.06.04.09-.03.05-.07.06-.12.04-.04-.01-.05-.05-.03-.09Zm.11.44s.1.02.1.09c-.02.08-.07.12-.14.12-.08,0-.14-.04-.12-.13.02-.08.1-.09.16-.09Zm-.19,1.22c.02-.05.1-.07.13-.02.11.16.21.33.08.54-.05-.03-.09-.04-.1-.07-.05-.15-.19-.27-.11-.45Zm-.02,17.18c.07,0,.09.06.09.12,0,.08-.02.15-.11.15-.06,0-.09-.05-.1-.11,0-.08.05-.13.12-.15Zm.02,1.66c-.08-.23-.11-.37-.02-.54.12.16.08.3.02.54Zm-.8-53.14c.05-.03.1-.02.14.02.08.08.05.17,0,.25-.03.06-.05.14-.08.23-.15-.06-.19-.16-.2-.28,0-.11.05-.18.13-.22Zm-.04,1.8c.09,0,.22,0,.23.09.02.22.04.44.13.6,0,.11-.04.16-.1.16-.05,0-.12-.01-.14-.05-.16-.19-.12-.46-.21-.69-.02-.06.03-.11.09-.11Zm-.2,72.24c-.03-.1.02-.17.11-.2.08,0,.13.04.14.12,0,.08-.01.15-.09.17-.08.02-.13,0-.16-.09Zm.15,7.3s-.1-.04-.08-.11c.01-.05.04-.1.1-.09.05.01.08.05.07.12-.02.05-.03.11-.1.09Zm.56-12.84c.18-.03.16.15.19.27.01.05.02.11.04.18-.14.21-.06.45-.03.69.01.11-.03.19-.14.17-.07-.01-.14-.07-.12-.16.08-.29,0-.54-.09-.81-.04-.13-.06-.32.15-.35Zm-.14-.62s.06-.05.08-.04c.05,0,.1.04.09.11-.02.06-.06.09-.12.07-.05-.02-.07-.08-.05-.13Zm.17,10.36c-.18-.21-.08-.45-.06-.67.13.22.1.44.06.67Zm-.09-1.03c-.06-.44-.01-.8.02-1.19.21.3.21.44-.02,1.19Zm.21-3.01c-.05,0-.09-.05-.09-.11,0-.08.02-.15.09-.16.11-.02.1.08.1.14,0,.06,0,.16-.11.14Zm.07-9.65c-.02.06-.06.12-.16.29-.02-.2-.04-.27-.03-.34.01-.11-.04-.32.14-.28.13.03.09.21.05.33Zm.32-4.18c-.02.07-.07.15-.16.09-.1-.07-.1-.2-.07-.3.02-.07.09-.11.17-.08.14.07.08.19.05.29Zm-1.08-1.72c.4-.12.8-.17,1.18.04-.4.03-.79.12-1.18-.04Zm1.19-32.54c-.06,0-.09-.04-.09-.1,0-.05.03-.1.09-.11.05.01.09.05.09.1,0,.06-.04.09-.1.1Zm.25,2.67c0-.08.04-.13.11-.16.11,0,.12.11.13.19,0,.06-.03.09-.09.08-.06-.02-.15-.02-.15-.11Zm.16,30.77c-.05,0-.09-.03-.1-.09,0-.06.03-.1.09-.11.05,0,.09.03.1.09,0,.06-.03.1-.08.11Zm.3-8.95c-.05,0-.09-.03-.1-.09,0-.06.02-.1.11-.11.03,0,.07.03.07.09,0,.06-.02.11-.08.12Zm-.03-1.23c-.12,0-.14-.09-.14-.18,0-.1.04-.18.16-.17.1.01.15.1.15.19,0,.1-.07.16-.17.17Zm.06-7.48c-.1,0-.16-.06-.17-.16-.01-.1.03-.17.09-.21.17,0,.18.12.19.23,0,.09-.02.14-.11.14Zm.02-18.87s.09-.07.11-.11c.08-.17-.02-.28-.12-.39-.06-.07-.04-.15.02-.19.08-.05.13,0,.15.09.04.17.07.33.04.5.05.13.11.26-.03.36-.09.06-.23-.13-.18-.26Zm.34,11.01c0,.05-.03.1-.1.08-.05-.02-.08-.05-.08-.13.02-.02.05-.08.09-.09.11-.02.08.08.08.14Zm.05-7.39c-.09.01-.13-.08-.13-.15,0-.07.04-.15.13-.14.06,0,.08.06.08.2,0,0,0,.08-.09.09Zm.05-.8c-.07.03-.08-.03-.09-.08-.01-.06.02-.1.07-.11.06,0,.09.02.1.08,0,.06-.03.09-.08.11Zm.3-7.61c-.01.07-.05.13-.14.32-.03-.2-.05-.27-.06-.35,0-.08,0-.17.08-.18.12,0,.12.11.11.2Zm.35,39.23c-.03.07-.08.14-.16.11-.11-.04-.16-.15-.12-.27.03-.1.1-.14.17-.15.14.09.14.2.1.31Zm1.21-30.87c0-.22.01-.44.04-.67,0-.04.06-.09.13-.07.05.02.12.06.1.11-.12.29-.01.59,0,.88-.17-.03-.26-.12-.27-.26Zm.91-4.81s-.06-.02-.07-.05c-.02-.05,0-.09.06-.1.03.02.07.02.08.05.01.05-.01.1-.07.1Zm.27,5.07s0,.12-.12.13c-.02-.05-.07-.12-.05-.15.09-.16.05-.53.24-.46.33.12-.13.29-.06.48Zm4.09-19.17v1.29c-.19-.63-.21-.89,0-1.29Zm-.55,2.42c-.03.1-.07.25-.2.21-.1-.03-.17-.17-.15-.28.08-.3.07-.6,0-.9-.01-.07.02-.16.11-.17.08,0,.13.06.15.13.06.22.14.43.13.67-.02.11-.02.23-.05.33Zm.5,1.76c0-.54-.19-1.06-.22-1.61.19-.01.24.06.27.15.07.22.05,1.05-.06,1.46Zm.67,2.99c-.1-.6-.21-1.19-.09-1.8.22.59.13,1.19.09,1.8Zm1.14-1.08c-.13.08-.22,0-.22-.08,0-.62-.05-1.24.05-1.86,0-.03.05-.05.15-.15.05.74.05,1.42.03,2.09Zm.29-5.14c0,.28,0,.56,0,.84,0,.15.02.3-.07.5-.09-.49-.02-.91.07-1.34Zm-.06,3.7c.05.08.1.17.15.25-.1-.1-.16-.18-.15-.25Z"/>
          <text class="cls-6" transform="translate(15.64 111.93) scale(.98 1)"><tspan x="0" y="0" xml:space="preserve"> Umar I.</tspan></text>
          <text/>
        </g>
      </g>
    </g>
  </g>
</svg>